<svg width="177" height="201" viewBox="0 0 177 201" fill="currentColor" xmlns="http://www.w3.org/2000/svg">
<path d="M176.6 137.6C176.9 141 176.9 144.5 176.2 147.8C175.3 151.6 173.5 155.2 171.3 158.5C169.3 161.4 166.9 164.1 164.6 166.8C164.2 170.8 163.9 174.8 162.4 178.5C160.7 182.7 157.5 186.4 153.9 189.4C148.3 194.1 141.7 197.1 134.8 199C130.3 200.2 125.6 201 120.9 201C117.6 201 114.3 200.7 111.2 199.5C108.9 198.6 106.8 197.3 105 195.7C104.2 195 103.5 194.2 102.8 193.3C102.6 193 102.3 192.7 102.1 192.3C99.6999 192.3 97.2999 192.3 94.8999 192.3C94.8999 194 94.8999 195.7 94.8999 197.4C90.5999 197.4 86.3999 197.4 82.0999 197.4C82.0999 195.7 82.0999 194 82.0999 192.3C79.6999 192.3 77.3 192.3 74.9 192.3C74.7 192.6 74.3999 193 74.1999 193.3C73.4999 194.1 72.8 194.9 72 195.7C70.2 197.3 68.1 198.7 65.8 199.5C62.7 200.7 59.3999 201 56.0999 201C51.3999 201 46.7 200.3 42.2 199C35.3 197.1 28.6999 194 23.0999 189.4C19.4999 186.4 16.3 182.7 14.6 178.5C13.5 175.9 13.1 173 12.7 170.1L15.1 169.8C15.2 170.5 15.3 171.1 15.4 171.8C16.2 175.8 17.7999 179.7 20.2999 182.9C22.8999 186.4 26.4999 189.1 30.2999 191.3C34.3999 193.7 38.7999 195.5 43.2999 196.7C46.8999 197.7 50.6 198.3 54.3 198.5C57.4 198.7 60.5999 198.6 63.5999 197.7C65.2999 197.2 66.9 196.4 68.4 195.4C69.6 194.6 70.6999 193.6 71.5999 192.5C71.6999 192.3 71.9 192.2 72 192C72 191.9 72 191.7 72 191.6C71.7 191.6 71.4999 191.6 71.1999 191.6C71.1999 190.3 71.1999 189.1 71.1999 187.8C70.5999 187.8 69.9 187.8 69.3 187.8C69 188 68.6 188.3 68.3 188.5C66.7 189.6 64.9 190.5 63 191.3C60.3 192.4 57.4 193.1 54.5 193.5C51.3 193.9 47.9999 193.8 44.7999 193.1C42.2999 192.5 39.8999 191.5 37.7999 190C36.4999 189 35.3 187.9 34.4 186.5C33.5 185.2 32.8999 183.6 32.7999 182C32.6999 180.1 33.2999 178.1 34.2999 176.4C35.3999 174.5 36.9999 173 38.7999 171.8C41.1999 170.2 44 169.3 46.9 168.9C49.6 168.5 52.3999 168.5 55.0999 168.9C57.0999 169.2 59.1 169.8 61 170.4C62.3 170.8 63.6 171.2 65 171.6C65 171 64.9 170.4 64.9 169.8C64.7 168.5 64.4 167.2 64 165.9C63 162.8 61.8999 159.8 60.5999 156.8C59.2999 153.8 58 150.9 56.4 148.2C55.2 146.1 53.7999 144.1 52.0999 142.2C52.7999 142.7 53.4999 143.2 54.1999 143.7C55.6999 145.1 56.9 146.9 57.9 148.7C59.3 151 60.5999 153.2 61.6999 155.5C62.9999 158 64.0999 160.6 65.0999 163.2C65.4999 164.3 66 165.4 66.3 166.6C66.7 167.7 67 168.9 67.3 170.1C68.3 168.5 69.1999 166.8 70.0999 165.1C71.1999 162.9 72.2 160.7 73.5 158.6C74.5 157 75.4999 155.4 76.8999 154C78.3999 152.4 80.1999 151.1 82.0999 150.2C84.0999 149.3 86.2999 149 88.5999 149C90.7999 149 93.0999 149.4 95.0999 150.2C97.0999 151.1 98.8 152.4 100.3 154C101.6 155.4 102.7 156.9 103.7 158.6C104.9 160.7 105.9 162.9 107.1 165.1C108 166.8 109 168.4 109.9 170.1C110.2 169 110.5 167.8 110.9 166.6C111.3 165.5 111.7 164.3 112.1 163.2C113.1 160.6 114.2 158 115.5 155.5C116.7 153.2 118 150.9 119.3 148.7C120.4 146.9 121.5 145.1 123 143.7C123.6 143.1 124.4 142.6 125.1 142.2C123.4 144.1 122 146.1 120.8 148.2C119.2 151 117.8 153.9 116.6 156.8C115.3 159.8 114.2 162.8 113.2 165.9C112.8 167.2 112.4 168.5 112.3 169.8C112.2 170.4 112.2 171 112.2 171.6C113.5 171.2 114.8 170.8 116.2 170.4C118.2 169.8 120.1 169.3 122.1 168.9C124.8 168.5 127.6 168.5 130.3 168.9C133.2 169.4 136 170.3 138.4 171.8C140.2 173 141.8 174.5 142.9 176.4C143.9 178.1 144.5 180 144.4 182C144.3 183.6 143.7 185.1 142.8 186.5C141.9 187.9 140.7 189 139.4 190C137.3 191.5 134.9 192.5 132.4 193.1C129.2 193.8 125.9 193.9 122.7 193.5C119.8 193.2 116.9 192.4 114.2 191.3C112.3 190.6 110.6 189.6 108.9 188.5C108.6 188.3 108.2 188 107.9 187.8C107.3 187.8 106.6 187.8 106 187.8C106 189.1 106 190.3 106 191.6C105.7 191.6 105.5 191.6 105.2 191.6C105.2 191.7 105.2 191.9 105.2 192C105.3 192.2 105.5 192.3 105.6 192.5C106.5 193.6 107.6 194.5 108.8 195.4C110.3 196.4 111.9 197.2 113.6 197.7C116.6 198.6 119.8 198.7 122.9 198.5C126.6 198.3 130.3 197.7 133.9 196.7C138.4 195.5 142.8 193.7 146.9 191.3C150.7 189.1 154.3 186.4 156.9 182.9C159.3 179.7 161 175.8 161.7 171.8C162.1 169.6 162.3 167.4 161.9 165.3C161.7 164.1 161.2 162.9 160.7 161.8C159.4 159.2 157.6 156.8 155.5 154.8C152.9 152.2 149.8 150 146.6 148.3C143.1 146.4 139.3 144.9 135.5 143.5C133.2 142.7 131 141.9 128.6 141.5C127.5 141.3 126.4 141.3 125.4 140.9C125.3 140.8 125.1 140.8 125 140.7C124 140.3 123.2 139.5 122.4 138.8C121.7 138.2 120.9 137.6 120.1 137L120.8 136.1C121.4 136.5 121.9 136.9 122.5 137.3C122.6 137.1 122.6 137 122.7 136.8C121.4 135.5 120.2 134.2 118.9 132.9L119.8 132.1C121.4 133.7 123 135.4 124.6 137C125.4 137.8 126.2 138.6 127 139.5C128.8 138.6 130.7 137.6 132.5 136.6C134.7 135.4 136.8 134.1 139 132.8C142.2 130.9 145.4 129.1 148 126.4C149.2 125.1 150.3 123.6 151.1 122C152.2 119.8 152.8 117.3 153.1 114.8C153.4 112.7 153.5 110.5 153.6 108.4L156 108.5C158 109.7 160 111 162 112.4C166.2 115.4 170 119 172.6 123.4C174.7 127.5 176.1 132.6 176.6 137.6ZM174 143.8C174.3 140.1 174 136.5 173.1 132.9C172.2 129.3 170.7 125.8 168.7 122.7C166.7 119.7 164.1 117 161.1 114.9C159.2 113.6 157.1 112.5 155.1 111.4C154.9 114.9 154.6 118.4 153.3 121.6C152.2 124.3 150.3 126.8 148 128.9C144.9 131.8 141.2 134 137.6 136C135.4 137.2 133.3 138.4 131.1 139.5C133 140 134.8 140.5 136.6 141.1C139.3 141.9 142 142.9 144.5 144.1C148.1 145.8 151.4 148 154.5 150.5C156.7 152.3 158.9 154.3 160.5 156.7C161.9 158.8 162.9 161.1 164 163.4C165 162.3 165.9 161.1 166.9 159.9C168.7 157.6 170.5 155.2 171.7 152.5C173 149.9 173.7 146.9 174 143.8ZM140.7 183.9C141.3 182.6 141.5 181 141.3 179.6C140.8 176.8 138.2 174.5 135.5 173.1C132.5 171.6 129.4 171 126.2 171C123.9 171 121.5 171.3 119.3 171.9C117.8 172.3 116.4 172.7 115 173.2C114.2 173.5 113.3 173.8 112.5 173.9C111.9 174 111.2 174 110.6 173.9C109.8 173.7 109.1 173.2 108.5 172.5C107.7 171.7 107.2 170.7 106.7 169.8C105.1 166.8 103.8 163.7 102.1 160.7C101 158.8 99.9 157 98.3 155.4C96.7 153.7 94.5999 152.3 92.3999 151.6C92.0999 151.5 91.7999 151.4 91.3999 151.4C90.3999 151.2 89.3999 151.1 88.3999 151.1C87.0999 151.1 85.7 151.3 84.5 151.7C82.3 152.4 80.1999 153.8 78.5999 155.5C77.0999 157.1 75.9 158.9 74.9 160.8C73.2 163.8 71.9 166.9 70.3 169.9C69.8 170.9 69.3 171.8 68.5 172.6C67.9 173.2 67.2 173.7 66.4 174C65.8 174.2 65.2 174.1 64.5 174C63.6 173.9 62.8 173.6 62 173.3C60.6 172.8 59.0999 172.4 57.6999 172C55.3999 171.4 53.1 171.1 50.8 171.1C47.6 171.1 44.5 171.7 41.5 173.2C38.8 174.6 36.2 176.9 35.7 179.7C35.4 181.1 35.6999 182.6 36.2999 184C36.9999 185.6 38.1 186.9 39.4 187.9C41 189.1 42.8 189.9 44.7 190.5C47.2 191.2 49.7 191.4 52.3 191.3C55.8 191.1 59.2 190.3 62.5 188.9C64.2 188.2 65.9 187.3 67.3 186.2C67.6 186 67.8999 185.7 68.1999 185.4C69.1999 185.4 70.1999 185.4 71.1999 185.4C71.1999 181.6 71.1999 177.7 71.1999 173.9C72.9999 173.9 74.7 173.9 76.5 173.9C76.5 171.5 76.5 169.2 76.5 166.8C78.3 166.8 80.2 166.8 82 166.8C82 163.3 82 159.8 82 156.3C83.4 156.3 84.8 156.3 86.2 156.3C86.2 155.2 86.2 154.1 86.2 152.9C87 152.9 87.7999 152.9 88.5999 152.9C89.3999 152.9 90.2 152.9 91 152.9C91 154 91 155.1 91 156.3C92.4 156.3 93.8 156.3 95.2 156.3C95.2 159.8 95.2 163.3 95.2 166.8C97 166.8 98.9 166.8 100.7 166.8C100.7 169.2 100.7 171.5 100.7 173.9C102.5 173.9 104.2 173.9 106 173.9C106 177.7 106 181.6 106 185.4C107 185.4 108 185.4 109 185.4C109.3 185.7 109.6 185.9 109.9 186.2C111.3 187.3 113 188.2 114.7 188.9C117.9 190.3 121.4 191.1 124.9 191.3C127.4 191.4 130 191.2 132.5 190.5C134.4 190 136.2 189.1 137.8 187.9C138.9 186.8 140 185.5 140.7 183.9Z" />
<path d="M167.8 128.5C167.8 128.8 167.8 129.1 167.8 129.5C167.8 129.9 167.8 130.4 167.8 130.8C165.5 127.6 162.5 125 158.9 123.2C159 122.5 159.1 121.9 159.1 121.2C162.7 122.8 165.6 125.3 167.8 128.5Z" />
<path d="M167.7 96.3C167.7 97 167.2 97.6 166.5 97.6C166.2 97.6 165.9 97.6 165.7 97.7C165 97.8 164.5 98.3 164.5 99C164.5 100.9 164.5 102.8 164.4 104.7C164.3 106.4 163.1 107.7 161.4 107.8C159.6 107.9 157.9 108.1 155.7 108.2L153.3 108.1C153.3 106.8 153.3 105.5 153.3 104.2C153.3 97.5 153.3 90.8 153.3 84.1C153.3 78.5 153.2 72.9 153.2 67.3C131.6 65.3 110 64.3 88.3999 64.3C66.7999 64.3 45.0999 65.3 23.5999 67.3C23.5999 72.9 23.4999 78.5 23.4999 84.1C23.4999 90.8 23.4999 97.5 23.4999 104.2C23.4999 107.6 23.4999 111.1 23.9999 114.5C24.2999 117 24.8999 119.5 25.9999 121.7C26.7999 123.3 27.8999 124.8 29.0999 126.1C31.5999 128.8 34.8999 130.6 38.0999 132.5C40.2999 133.8 42.3999 135.1 44.5999 136.3C46.3999 137.3 48.1999 138.2 50.0999 139.2C50.8999 138.4 51.7 137.6 52.5 136.7C54.1 135.1 55.7 133.4 57.3 131.8L58.1999 132.7C56.8999 134 55.7 135.3 54.4 136.6C54.5 136.8 54.4999 136.9 54.5999 137.1C55.1999 136.7 55.7 136.3 56.3 135.9L57 136.8C56.2 137.4 55.4999 137.9 54.6999 138.6C53.8999 139.3 52.9999 140.1 52.0999 140.5C51.2999 140.9 50.3 141 49.4 141.1C49.1 141.1 48.8 141.2 48.5 141.2C46.1 141.6 43.7999 142.4 41.5999 143.2C37.7999 144.6 34.0999 146 30.4999 148C27.2999 149.8 24.1999 151.9 21.5999 154.5C19.4999 156.5 17.6999 158.9 16.4 161.5C15.9 162.6 15.4 163.8 15.2 165C14.9 166.5 14.8999 168 15.0999 169.6L12.7 169.9C12.6 168.8 12.4999 167.7 12.3999 166.6C9.99995 163.9 7.69995 161.3 5.69995 158.3C3.49995 155 1.69995 151.4 0.799949 147.6C-5.14984e-05 144.3 -5.11408e-05 140.8 0.399949 137.4C0.899949 132.3 2.19995 127.3 4.79995 123C7.39995 118.6 11.1999 115 15.3999 112C17.2999 110.6 19.4 109.4 21.4 108.1C19.6 108 17.8999 107.8 16.0999 107.7C14.3999 107.6 13.1999 106.3 13.0999 104.6C12.9999 102.7 12.9999 100.8 12.9999 98.9C12.9999 98.2 12.4999 97.6 11.7999 97.6C11.4999 97.6 11.1999 97.6 10.9999 97.5C10.2999 97.4 9.79995 96.9 9.79995 96.2C9.89995 91.1 10.2999 86.1 10.9999 81C11.0999 80.3 11.6999 79.8 12.3999 79.9C12.6999 79.9 13 79.9 13.2 80C13.9 80.1 14.4999 79.6 14.5999 78.9C14.8999 77 15.2999 75.1 15.5999 73.3C15.8999 71.6 17.2999 70.6 19.0999 70.7C19.7999 70.8 20.3999 70.8 21.0999 70.9C21.0999 69.9 21.0999 68.8 21.0999 67.8C20.8999 67.8 20.6 67.8 20.4 67.9C19.7 68 19.0999 67.6 18.6999 67C17.3999 64.8 17.1999 62.2 17.9999 59.8C18.1999 59.1 18.7999 58.7 19.4999 58.6C20.0999 58.5 20.6999 58.5 21.1999 58.4C21.4999 49.3 22.5999 40.8 26.0999 33C27.7999 29.1 30.2 25.3 33 21.9L35.2 23.4C34.3 24.5 33.4 25.6 32.7 26.8C29.8 31.1 27.5999 36 26.2999 41C24.8999 46.6 24.3999 52.3 23.9999 58.1C45.4999 56.1 67.0999 55.1 88.6999 55.1C110.3 55.1 131.9 56.1 153.4 58.1C153 52.3 152.6 46.6 151.1 41C149.8 36 147.7 31.1 144.8 26.8C144 25.6 143.2 24.5 142.2 23.4L144.4 21.9C147.2 25.3 149.6 29.1 151.3 33C154.8 40.8 155.8 49.3 156.1 58.4C156.7 58.5 157.3 58.5 157.8 58.6C158.5 58.7 159.1 59.1 159.3 59.8C160.1 62.2 159.8 64.8 158.6 67C158.3 67.6 157.6 67.9 156.9 67.9C156.7 67.9 156.4 67.9 156.2 67.8C156.2 68.8 156.2 69.9 156.2 70.9C157.3 70.8 157.9 70.8 158.6 70.7C160.3 70.6 161.7 71.6 162.1 73.3C162.5 75.2 162.8 77.1 163.1 78.9C163.2 79.6 163.8 80.1 164.5 80C164.8 80 165.1 80 165.3 79.9C166 79.8 166.6 80.3 166.7 81C167.2 86.2 167.6 91.3 167.7 96.3ZM45.7 139.6C43.5 138.4 41.3 137.3 39.2 136.1C35.5 134.1 31.8999 131.9 28.7999 129C26.5999 126.9 24.6999 124.4 23.4999 121.7C22.1999 118.5 21.9999 115 21.6999 111.5C19.5999 112.6 17.6 113.6 15.7 115C12.7 117.1 10.0999 119.8 8.09995 122.8C5.99995 125.9 4.59995 129.3 3.69995 133C2.79995 136.6 2.49995 140.2 2.79995 143.9C3.09995 147 3.89995 150 5.19995 152.8C6.39995 155.5 8.19995 157.9 9.99995 160.2C10.8999 161.4 11.8999 162.5 12.8999 163.7C13.8999 161.4 14.9 159.1 16.4 157C18 154.7 20.1 152.7 22.4 150.8C25.4999 148.3 28.8 146.1 32.4 144.4C34.9 143.2 37.5999 142.2 40.2999 141.4C41.9999 140.6 43.9 140.1 45.7 139.6Z" />
<path d="M167.5 124.5C167.6 125.2 167.7 125.9 167.7 126.6C165.5 123.8 162.6 121.5 159.3 120.1C159.3 119.5 159.4 119 159.4 118.4C162.6 119.7 165.4 121.7 167.5 124.5Z" />
<path d="M167.8 132.1C167.7 132.8 167.6 133.5 167.5 134.2C165.2 130.8 162.1 127.9 158.5 125.9C158.6 125.4 158.8 124.9 158.9 124.3C162.4 126.2 165.4 128.8 167.8 132.1Z" />
<path d="M167.1 135.4C167 135.7 166.9 136 166.8 136.3C166.7 136.6 166.6 136.8 166.5 137.1C164.1 133.6 161 130.8 157.3 128.7C157.6 128.1 157.9 127.5 158.1 126.9C161.7 129 164.7 131.9 167.1 135.4Z" />
<path d="M166.1 138.1C165.9 138.6 165.6 139.2 165.3 139.7C162.9 136.1 159.6 133.1 155.8 131C156.2 130.5 156.6 130 156.9 129.5C160.6 131.7 163.7 134.6 166.1 138.1Z" />
<path d="M164.7 140.6C164.4 141 164.2 141.4 163.9 141.8C163.9 141.9 163.8 141.9 163.8 142C161.2 138.3 157.8 135.3 153.7 133.3C154.2 132.8 154.7 132.2 155.2 131.7C159 134 162.2 137 164.7 140.6Z" />
<path d="M163.1 143C162.7 143.5 162.3 144 162 144.5C159.3 140.6 155.7 137.6 151.3 135.7C151.8 135.2 152.4 134.7 152.9 134.2C157.1 136.1 160.6 139.1 163.1 143Z" />
<path d="M161.5 145.1C160.8 145.9 160.1 146.7 159.5 147.5C156.9 143.1 152.8 140 147.9 138.8C148.8 138 149.6 137.3 150.5 136.5C154.9 138.2 158.7 141.2 161.5 145.1Z" />
<path d="M150.6 95.1C150.3 96.9 150 98.7 149.4 100.4C148.6 102.7 147.3 104.9 145.7 106.6C144.4 107.9 142.9 109 141.2 109.6C140.1 110 139 110.3 137.8 110.4C134.7 110.7 131.7 109.8 129 108.3C124.8 106.1 121.1 102.6 117.6 99.3C114.9 96.7 112.3 94.2 109.8 91.7C107.1 88.9 104.4 86.1 101.7 83.4C99.8999 81.6 98.0999 79.9 95.9999 78.4C94.7999 77.5 93.5999 76.8 92.2999 76.2C91.6999 75.9 90.9999 75.7 90.3999 75.4C90.9999 75.3 91.6999 75.3 92.3999 75.3C93.2999 75.3 94.1999 75.5 94.9999 75.8C96.1999 76.2 97.3999 76.9 98.4999 77.6C103.1 80.7 106.8 84.4 111 88.2C114 90.9 117.3 93.6 120.5 96.2C122.9 98.1 125.2 100 127.8 101.7C129.5 102.8 131.2 103.8 133.1 104.5C134.7 105.1 136.5 105.5 138.2 105.4C139.5 105.3 140.9 105 142.1 104.4C143.5 103.7 144.7 102.8 145.8 101.7C147 100.6 148 99.4 148.9 98.2C149.4 97.3 150.1 96.4 150.6 95.1Z" />
<path d="M148.2 74.2C148.7 75.5 148.6 76.9 148.5 78.3C148.2 80.5 147.7 82.6 147.1 84.8C147 85.1 146.9 85.3 146.9 85.6C146.3 87.7 145.5 89.7 144.2 91.5C143.1 93 141.6 94.2 139.9 94.9C138.1 95.6 136 95.6 134 95.3C130.3 94.7 126.9 93.2 123.7 91.4C119.3 89 115.2 86.2 111.2 83.3C109.1 81.8 107 80.4 105.1 78.7C104.4 78.1 103.7 77.4 103.1 76.7C102.6 76.1 102.2 75.6 102 74.8C101.8 74.1 101.8 73.4 102.3 73C102.4 72.9 102.6 72.8 102.8 72.8C103.2 72.7 103.6 72.7 104 72.6C107.2 72.4 110.4 72.3 113.6 72.3C117.7 72.2 121.8 72.2 125.9 72.2C130 72.2 134 72.1 137.5 72.1C139.2 72.1 140.7 72.1 143 72.1C144.2 72.1 145.5 72.1 146.5 72.5C147.3 72.7 147.9 73.4 148.2 74.2Z" />
<path d="M144.1 21.9L141.9 23.4C139.2 20.1 136 17.2 132.5 14.8C127 11 120.8 8.40004 114.4 6.60004C106.3 4.30004 97.9 3.20004 89.5 3.10004C89.1 3.10004 88.7 3.10004 88.4 3.10004C88 3.10004 87.6 3.10004 87.3 3.10004C78.9 3.20004 70.5 4.30004 62.4 6.60004C56 8.40004 49.7999 11.1 44.2999 14.8C40.7999 17.2 37.6 20.1 34.9 23.4L32.7 21.9C35.5 18.5 38.8 15.4 42.4 12.9C48.8 8.30002 56.3 5.40002 63.9 3.40002C71.9 1.40002 80.2 0.400024 88.5 0.400024C96.7 0.400024 105 1.40002 113.1 3.40002C120.8 5.30002 128.2 8.30002 134.6 12.9C138.1 15.5 141.3 18.5 144.1 21.9Z" />
<path d="M125 173.2C129.3 173.2 132.8 176.5 132.8 180.7C132.8 184.8 129.3 188.2 125 188.2C120.7 188.2 117.2 184.8 117.2 180.7C117.2 176.5 120.7 173.2 125 173.2Z" />
<path d="M120.5 136L119.8 136.9C117.5 135.2 115 133.9 112.4 132.5C107.8 130.1 103.2 127.7 98.1999 126.5C94.9999 125.7 91.6999 125.3 88.3999 125.3C85.0999 125.3 81.7999 125.7 78.5999 126.5C73.5999 127.8 68.8999 130.1 64.3999 132.5C61.8999 133.8 59.3999 135.2 56.9999 136.9L56.2999 136C56.8999 135.5 57.5999 135.1 58.1999 134.6C58.1999 134 58.1999 133.4 58.1999 132.8L57.2999 131.9C58.9999 130.1 60.6999 128.4 62.4999 126.6C66.0999 123 69.7999 119.6 73.7999 116.6C75.7999 115.1 77.8999 113.8 80.0999 112.6C81.8999 111.7 83.8999 110.9 85.8999 110.5C86.6999 110.4 87.4999 110.3 88.2999 110.3C89.0999 110.3 89.8999 110.3 90.6999 110.5C92.6999 110.8 94.6999 111.6 96.4999 112.6C98.6999 113.7 100.8 115.1 102.8 116.6C106.8 119.6 110.5 123.1 114.1 126.6C115.9 128.3 117.6 130.1 119.3 131.9L118.4 132.7C118.4 133.3 118.4 133.9 118.4 134.5C119.2 135.1 119.8 135.5 120.5 136ZM112.5 130.5C112.5 129.3 112.5 128.1 112.5 126.9L112.4 126.8C111 125.6 109.6 124.4 108.2 123.2C108.2 124.7 108.2 126.3 108.2 127.8C109.6 128.6 111 129.5 112.5 130.5C112.5 130.4 112.4 130.4 112.5 130.5ZM101.9 124.8C101.9 122.7 101.9 120.6 101.9 118.5C100.5 117.5 99.0999 116.6 97.5999 115.8C97.5999 118.4 97.5999 121 97.5999 123.5C99.0999 123.9 100.5 124.3 101.9 124.8ZM91.3999 122.7C91.3999 119.6 91.3999 116.5 91.3999 113.4C90.3999 113.2 89.3999 113 88.3999 113C87.3999 113 86.3999 113.2 85.2999 113.4C85.2999 116.5 85.2999 119.6 85.2999 122.7C86.2999 122.6 87.2999 122.6 88.2999 122.6C89.3999 122.6 90.3999 122.6 91.3999 122.7ZM79.1999 123.6C79.1999 121 79.1999 118.4 79.1999 115.9C77.6999 116.7 76.2999 117.6 74.8999 118.6C74.8999 120.7 74.8999 122.8 74.8999 124.9C76.2999 124.3 77.6999 123.9 79.1999 123.6ZM68.6999 127.8C68.6999 126.3 68.6999 124.7 68.6999 123.2C67.1999 124.4 65.7999 125.6 64.4999 126.8L64.3999 126.9C64.3999 128.1 64.3999 129.3 64.3999 130.5C64.3999 130.5 64.4999 130.5 64.4999 130.4C65.7999 129.5 67.1999 128.6 68.6999 127.8Z" />
<path d="M86.4999 75.5C85.7999 75.7 85.1999 76 84.5999 76.3C83.2999 76.9 81.9999 77.7 80.8999 78.5C78.8999 80 76.9999 81.7 75.1999 83.5C72.3999 86.2 69.7999 89 67.0999 91.8C64.5999 94.3 61.9999 96.9 59.2999 99.4C55.7999 102.8 52.0999 106.2 47.8999 108.4C45.0999 109.9 42.1999 110.8 39.0999 110.5C37.9999 110.4 36.7999 110.1 35.6999 109.7C33.9999 109 32.4999 108 31.1999 106.7C29.4999 105 28.1999 102.8 27.4999 100.5C26.8999 98.8 26.5999 97.0001 26.2999 95.2001C26.8999 96.4001 27.4999 97.4 28.2999 98.3C29.1999 99.5 30.2999 100.7 31.3999 101.8C32.4999 102.9 33.6999 103.8 35.0999 104.5C36.2999 105.1 37.5999 105.4 38.9999 105.5C40.6999 105.6 42.4999 105.2 44.0999 104.6C45.9999 103.9 47.6999 102.9 49.3999 101.8C51.8999 100.1 54.2999 98.2 56.6999 96.3C59.8999 93.7 63.1999 91 66.1999 88.3C70.3999 84.6 74.0999 80.9001 78.6999 77.7001C79.7999 77.0001 80.8999 76.3 82.1999 75.9C82.9999 75.6 83.8999 75.5 84.7999 75.4C85.1999 75.3 85.8999 75.4 86.4999 75.5Z" />
<path d="M74.4999 72.8C74.9999 73.1 74.9999 73.9 74.7999 74.6C74.5999 75.4 74.1999 76 73.6999 76.5C73.0999 77.2 72.3999 77.9 71.6999 78.5C69.7999 80.2 67.6999 81.7 65.5999 83.1C61.4999 85.9 57.3999 88.7 53.0999 91.2C49.8999 93 46.4999 94.6 42.7999 95.1C40.7999 95.4 38.7999 95.4 36.8999 94.7C35.1999 94 33.6999 92.8 32.5999 91.3C31.1999 89.4 30.3999 87.2 29.6999 85C29.6999 84.9 29.5999 84.8 29.5999 84.6C28.9999 82.5 28.4999 80.4 28.1999 78.1C27.9999 76.7 27.8999 75.3 28.4999 74C28.7999 73.2 29.3999 72.5 30.2999 72.2C31.2999 71.8 32.6999 71.8 33.7999 71.8C36.0999 71.8 37.6999 71.8 39.2999 71.8C42.7999 71.8 46.7999 71.9 50.8999 71.9C54.9999 71.9 59.0999 71.9 63.1999 72C66.3999 72 69.5999 72.1 72.7999 72.3C73.1999 72.3 73.5999 72.4 73.9999 72.5C74.2999 72.7 74.3999 72.7 74.4999 72.8Z" />
<path d="M59.6 180.6C59.6 184.7 56.1 188.1 51.8 188.1C47.5 188.1 44 184.8 44 180.6C44 176.5 47.5 173.1 51.8 173.1C56.1 173.2 59.6 176.5 59.6 180.6Z" />
<path d="M26.3999 136.5C27.2999 137.3 28.0999 138 28.9999 138.8C23.9999 140 19.9999 143.1 17.3999 147.5C16.6999 146.7 15.9999 145.9 15.3999 145.1C18.0999 141.2 21.8999 138.2 26.3999 136.5Z" />
<path d="M23.9 134.1C24.4 134.6 25 135.1 25.5 135.6C21.1 137.5 17.4999 140.5 14.7999 144.4C14.3999 143.9 14 143.4 13.7 142.9C16.2 139.1 19.7 136.1 23.9 134.1Z" />
<path d="M21.6 131.7C22.1 132.3 22.6 132.8 23.1 133.3C19 135.3 15.6 138.3 13 142C13 141.9 12.9 141.9 12.9 141.8C12.6 141.4 12.3 141 12.1 140.6C14.6 137 17.8 134 21.6 131.7Z" />
<path d="M19.9 129.5C20.2 130 20.6 130.6 21 131C17.2 133.1 13.9 136 11.5 139.7C11.2 139.2 10.9 138.7 10.7 138.1C13.1 134.6 16.2 131.7 19.9 129.5Z" />
<path d="M18.7 126.8C18.9 127.4 19.2 128 19.5 128.6C15.8 130.7 12.6999 133.6 10.2999 137C10.1999 136.7 10.1 136.5 9.99995 136.2C9.89995 135.9 9.79995 135.6 9.69995 135.3C12.1 131.9 15.1 129 18.7 126.8Z" />
<path d="M18 124.3C18.1 124.8 18.2 125.4 18.4 125.9C14.8 128 11.8 130.8 9.39997 134.2C9.29997 133.5 9.19998 132.8 9.09998 132.1C11.4 128.8 14.4 126.2 18 124.3Z" />
<path d="M17.5999 121.2C17.6999 121.9 17.6999 122.5 17.7999 123.2C14.2999 125 11.2999 127.5 8.8999 130.8C8.8999 130.3 8.8999 129.9 8.8999 129.5C8.8999 129.2 8.8999 128.8 8.8999 128.5C11.1999 125.3 14.0999 122.8 17.5999 121.2Z" />
<path d="M17.4 118.4C17.4 119 17.5 119.5 17.5 120.1C14.2 121.6 11.4 123.8 9.09998 126.6C9.19998 125.9 9.19997 125.2 9.29997 124.5C11.4 121.7 14.2 119.7 17.4 118.4Z" />
</svg>
