<svg width="142" height="230" viewBox="0 0 142 230" fill="currentColor" xmlns="http://www.w3.org/2000/svg">
<path d="M141.8 100.7C142 106.3 141.9 111.8 141.8 117.4C141.4 115.9 141 114.3 140.4 112.8C140 111.9 139.6 111 139.2 110C139.3 111.3 139.4 112.6 139.3 113.8C139.2 115 138.9 116.1 138.6 117.3C138.1 116.1 137.6 114.9 137.2 113.7C136.6 112 136 110.3 135.3 108.6C134.2 106 132.9 103.4 131.4 101C130 98.8 128.5 96.6 126.7 94.7C124.3 92 121.4 89.5 118.2 87.9C115.7 86.7 113 85.9 110.2 85.7C107.9 85.5 105.5 85.6 103.3 86.1C101 86.6 98.8 87.3 96.6 88.3C95.1 89 93.7 89.8 92.2 90.6C92.4 89.6 92.5 88.6 92.8 87.7C93.2 86.2 93.9 84.8 94.9 83.7C95.7 82.8 96.8 82.1 97.9 81.5C100 80.4 102.3 79.9 104.7 79.6C107.8 79.2 110.9 79.3 114 79.6C116.8 79.9 119.5 80.6 122.1 81.5C124.3 82.3 126.4 83.3 128.4 84.7C130.6 86.2 132.6 88.2 133.6 90.5C134.2 91.9 134.4 93.4 134.6 95C134.7 94.4 134.8 93.9 134.9 93.3C135.1 91.5 134.7 89.7 134.2 88C133.7 86.3 132.9 84.7 132.1 83.1C131 81.1 129.6 79.1 128.1 77.3C126.6 75.5 124.9 73.9 123 72.5C121.4 71.2 119.7 70.2 117.8 69.2C115.4 68 112.7 67.1 110 66.9C108.2 66.8 106.5 67 104.7 67.3C106.1 66.5 107.5 65.6 109 64.8C110.3 64.1 111.6 63.4 112.9 62.9C115.6 61.9 118.5 61.6 121.4 61.7C124.6 61.8 127.8 62.2 130.8 63.2C133.2 63.9 135.5 65 137.7 66C138.5 69.9 139.2 73.9 139.7 77.8C140.9 85.5 141.6 93.1 141.8 100.7Z" />
<path d="M137.9 133.2C138 136.5 137.9 139.8 137 143C136.6 144.4 136.1 145.7 135.9 147.1C135.8 147.9 135.8 148.7 135.9 149.4C136 150 136.1 150.5 136.2 151.1C135.8 150.6 135.4 150.1 135.1 149.5C134.4 147.9 134.9 145.9 135 144C135 141.9 134.4 139.9 133.8 137.9C133.4 136.4 133 134.8 132.3 133.4C131.9 132.6 131.5 131.8 131.1 131.1C131.7 133.8 132.3 136.5 132.6 139.2C133 142.9 132.8 146.7 132.1 150.4C131.5 153.4 130.6 156.3 129 158.8C127.9 160.6 126.5 162.1 125.1 163.7C123 166.1 121 168.7 119.6 171.5C118.2 174.2 117.3 177.1 116.7 180.1C116.2 182.5 115.9 185 115.8 187.4C115.7 189 115.7 190.7 115.9 192.3C116 193.7 116.3 195.1 116.6 196.5C115.5 194.2 114.4 192 113.6 189.6C112.4 186.1 111.7 182.5 111.6 178.8C111.5 174.5 112.2 170.2 113.8 166.3C115.3 162.6 117.7 159.3 119 155.6C120 152.7 120.5 149.5 120.8 146.4C121.3 142 121.5 137.6 121.3 133.2C121.2 131.2 121 129.3 120.8 127.3C121.1 127.4 121.4 127.6 121.8 127.6C122.2 127.6 122.5 127.5 122.8 127.3C123.2 127 123.3 126.3 123.4 125.6C123.7 122.5 124 120 124 117.3C124 114.6 123.6 111.9 122.9 109.2C122.1 105.9 120.7 102.7 118.8 99.9C117.3 97.7 115.4 95.9 113.4 94C116.5 95.3 119.6 96.6 122.4 98.3C125.7 100.4 128.6 103.1 130.8 106.2C133.7 110.3 135.5 115 136.6 119.9C137.3 124.3 137.8 128.8 137.9 133.2Z" />
<path d="M137.3 63.6C137.4 63.9 137.4 64.1 137.5 64.3C136.4 63.4 135.3 62.4 134.1 61.6C132.6 60.6 131 59.8 129.4 59.1C126.7 57.9 124 57 121.2 56.6C117.8 56 114.3 56.2 110.8 56.7C107 57.3 103.4 58.2 99.9999 59.8C96.9999 61.2 94.0999 63 91.6999 65.1C88.8999 67.6 86.6999 70.7 84.6999 74.1C82.8999 77.2 81.1999 80.6 79.6999 83.9C78.6999 86.2 77.6999 88.4 76.6999 90.7C76.3999 88.9 76.5 87 76.8 85.2C77.2 81.9 78.1 78.7 79.3 75.6C80.9 71.5 82.8999 67.5 85.4999 63.9C88.1999 60.2 91.5 56.9 94.9 54C99.1 50.4 103.5 47.1 108.2 44.2C111.3 42.3 114.5 40.6 117.7 39C120.5 37.6 123.5 36.4 126.4 35.2C126.5 35.3 126.5 35.5 126.6 35.6C129.2 40.3 131.6 45.1 133.4 50.1C135 54.4 136.3 59 137.3 63.6Z" />
<path d="M118.7 23.7L118.8 23.8C117.6 24.3 116.5 24.9 115.4 25.5C113.9 26.3 112.6 27.3 111.2 28.3C108.2 30.6 105.3 33 102.6 35.5C97.3 40.6 92.8 46.5 88.4 52.6C83.7 59.2 79.1 66.1 76.5 73.6C74.7 78.9 73.8 84.6 72.5 90.1C71.8 93.3 70.9 96.4 70 99.5C69 93.9 68 88.4 66.7 82.9C65.4 77.3 63.9 71.8 61.7 66.5C58 57.5 52.6 49.2 46.4 41.8C43.6 38.4 40.6 35.2 37.4 32.2C35.1 29.9 32.6 27.7 29.9 25.9C28 24.6 25.9 23.5 23.8 22.4C23.9 22.3 24 22.2 24.1 22.1C27 18.7 30.1 15.5 33.6 12.7C36.5 10.3 39.6 8.20002 42.9 6.50002C43 6.50002 43.1 6.40002 43.2 6.40002C44.4 8.50002 45.6 10.5 46.8 12.7C48.5 15.7 50.1 18.7 51.7 21.8C54.9 28.1 57.8 34.5 60.6 41C63.3 47.3 66 53.7 67.9 60.3C69.3 65.3 70.3 70.5 71.2 75.7C71.9 72.5 72.6 69.3 73.4 66.2C75.2 58.9 77.5 51.7 80 44.6C81.8 39.6 83.6 34.5 85.9 29.7C87.5 26.4 89.2 23.1 91.1 19.9C92.4 17.6 93.8 15.4 95.5 13.4C96.5 12.3 97.5 11.3 98.8 10.5C99.8 9.90002 100.9 9.40002 101.9 8.80002C105.1 10.7 108.1 13.1 110.9 15.6C113.6 18.1 116.3 20.8 118.7 23.7Z" />
<path d="M115.2 115.4C115.3 115.9 115.4 116.5 115.4 117C115.4 117.7 115.1 118.4 114.7 119.1C114.7 118.6 114.5 118.2 114.3 117.8C113.9 117 113.4 116.3 112.7 115.8C112.1 115.4 111.5 115 110.9 114.7C110.6 114.5 110.2 114.4 109.8 114.3C109.6 114.2 109.3 114.2 109.1 114.3C108.8 114.4 108.5 114.7 108.2 114.9C107.5 115.5 106.8 115.7 106 115.8C104.8 116 103.7 116.2 102.5 116.3C101.3 116.4 100.1 116.4 98.9 116.4C97.6 116.4 96.2 116.3 94.9 116.3C94.1 116.3 93.4 116.2 92.6 116.2C93.3 116.7 94 117.1 94.7 117.6C95.4 118.2 96 118.8 96.6 119.5C97.4 120.5 98.2 121.6 98.4 122.9C98.5 123.5 98.5 124 98.5 124.6C98.1 123.8 97.6 122.9 97 122.3C95.8 120.9 93.9 120.1 92.2 119.1C89.4 117.6 86.9 115.7 84.5 113.8C82.9 112.6 81.4 111.4 79.9 109.9C79.3 109.3 78.8 108.6 78.5 107.9C78 106.8 78.2001 105.4 78.3001 104.1C78.5001 102.6 78.7 101.1 79.4 99.8C80.1 98.4 81.4001 97.3 82.8001 96.6C83.8001 96.1 84.9 95.8 85.9 95.6C87.2 95.3 88.5001 95.2 89.8001 95C89.1001 96.8 89.6 98.7 91.1 99.8C92.6 101 94.6 101 96.1 99.9C97.7 98.8 98.2 96.9 97.5 95.1C99.1 95.4 100.7 95.6 102.2 96.1C103.5 96.5 104.7 97.2 105.9 97.9C107.1 98.6 108.2 99.4 109 100.5C109.4 101.1 109.8 101.7 110.2 102.4C109.7 102.2 109.3 102.1 108.8 102.1C108.2 102.1 107.6 102.3 107.2 102.7C106.8 103.2 106.6 103.9 106.8 104.5C107 105.1 107.7 105.5 108.3 105.9C109.6 106.7 110.6 107.7 111.5 108.8C112.4 109.9 113.1 111.1 113.7 112.4C114.6 113.2 114.9 114.3 115.2 115.4Z" />
<path d="M110.2 160.4C110.2 163.1 110.1 165.9 109.6 168.6C109.1 171.2 108.2 173.8 106.7 175.9C105.5 177.6 103.9 179 102.5 180.5C101 182.1 99.6 183.8 98.5 185.6C97.1 187.9 96.2 190.4 95.4 193C94.6 195.9 93.9 198.9 93.8 201.8C93.7 204 93.9 206.3 93.9 208.6C93.9 210 93.9 211.5 94.3 212.8C94.5 213.6 94.9 214.3 95.2 215.1C94.5 214.5 93.9 213.8 93.3 213.1C91.7 211 91 208.3 90.4 205.6C89.6 201.8 89.2 198 89.5 194.2C89.8 190.5 90.9 186.8 92.4 183.3C93.3 181.2 94.4 179.2 95.9 177.5C96.3 177 96.8 176.5 97.3 176.1C97.3 173.3 97.3 170.5 97.3 167.8C97.3 164.8 97.3 161.7 97.3 158.7C98.2 158.2 99.1 157.7 99.7 157.1C100.8 156 101.4 154.5 101.6 152.8C101.9 150.8 101.8 148.7 101.2 146.9C100.5 144.9 99.1 143.2 97.4 141.8C95.4 140.2 93.1 139.1 90.6 138.4C88.8 137.9 87 137.6 85.1 137.5C83.3 137.4 81.5 137.5 79.7 137.6C81.9 136.5 84 135.5 86.3 134.6C88.2 133.8 90.1 133.2 92 132.4C92.8 132.1 93.6 131.7 94.5 131.4C95.3 131.1 96.2 130.9 97 130.9C98.1 131 99.2 131.7 100.1 132.4C100.7 132.9 101.2 133.4 101.6 133.9C102.7 135.2 103.7 136.5 104.7 138C106.2 140.2 107.4 142.6 108.3 145.1C109.1 147.4 109.6 149.8 109.9 152.2C110.1 154.9 110.2 157.7 110.2 160.4Z" />
<path d="M95.4 145.2C95.4 145.5 95.3 145.8 95.1 146.1C94.8 146.5 94.2 146.8 93.6 147C91.9 147.7 90.2 148.1 88.5 148.4C86.5 148.8 84.5 149 82.5 149.2C81 149.3 79.4 149.4 77.9 149.8C76.5 150.2 75.2 150.8 73.8 151C72.8 151.1 71.7 151 70.6 151C70 151 69.5 151.1 68.9 151.2C67.4 151.4 65.8 151.6 64.4 151.2C63 150.8 61.8 149.8 60.4 149.3C59 148.8 57.5 148.8 56 148.9C54.4 148.9 52.8 148.9 51.3 149.2C50.1 149.5 48.9 150 47.7 150.4C48.1 150.1 48.5 149.8 48.9 149.5C49.7 148.9 50.6 148.5 51.5 148.1C53.4 147.3 55.4 146.8 57.5 146.6C59 146.5 60.5 146.6 62 146.9C64.1 147.3 66.2 147.9 68.4 148C68.6 148 68.8 148 69 148V147.9H70.8C71.1 147.8 71.5 147.8 71.8 147.7C73.5 147.4 75.2 146.7 77 146.6C78.7 146.4 80.3 146.7 82.1 146.7C83.7 146.7 85.3 146.6 86.6 146.3C87.2 146.2 87.8 146 88.6 145.6C89.1 145.3 89.8 144.9 89.6 144.5C89.5 144.3 89.3 144.2 89.1 144.1C88.1 143.5 87.3 143.2 86.3 143C85.6 142.8 84.9 142.7 84.2 142.5C85.2 142.2 86.2 141.9 87.2 141.9C88.4 141.8 89.7 141.9 90.8 142.2C91.6 142.4 92.4 142.8 93.3 143.3C94.3 143.7 95.3 144.4 95.4 145.2Z" />
<path d="M83.2 126C83.2 126.9 83 127.8 82.6 128.8C82.2 129.8 81.5 130.9 80.6 131.1C80.2 131.2 79.7 131.1 79.6 130.7C79.5 130.5 79.5 130.1 79.5 129.8C79.4 129.4 79.1001 129 78.8001 128.7C78.3001 128.3 77.6 128 77 128.1C76.6 128.2 76.1 128.4 75.7 128.7C75.1 129.1 74.5 129.4 74 129.8C73.3 130.2 72.5 130.6 71.7 130.9C71.4 131 71 131.1 70.7 131.2C70.7 136.7 70.7 142.3 70.7 147.8H68.9C68.9 142.3 68.9001 136.7 68.8001 131.2C68.4001 131.2 67.9 131.1 67.5 130.9C67 130.7 66.6 130.5 66.2 130.2C65.7 129.9 65.2 129.5 64.6 129C63.5 128.1 62.3 127.1 61.4 127.7C61.1 127.9 60.9001 128.2 60.8001 128.6C60.7001 129.1 60.8 129.6 60.9 130.1C61 130.6 61 131.1 60.7 131.5C60.5 131.7 60.3 131.8 60 131.8C59.6 131.8 59.3 131.4 59 131.1C58.5 130.4 58.2 129.7 58 129C57.7 128 57.5 126.9 57.4 125.8C57.3 124.3 57.3001 122.7 57.8001 121.3C58.0001 120.8 58.2 120.3 58.4 119.9C58.8 119.2 59.4 118.7 60 118.1C62.3 115.9 64.7 113.7 66.9 112C69 110.4 71.7 110.5 73.5 112.4C73.7 112.6 73.9 112.8 74.1 113C75.4 114.3 76.6 115.6 77.9 116.9C79.5 118.5 81.1 120.1 82.1 122.1C82.8 123.4 83.2 124.7 83.2 126Z" />
<path d="M81.8 1.3C81 1.2 80.5 1.6 80.1 2C79.7 2.5 79.4 3.1 79.2 3.7C78.4 5.5 77.8 7.3 77.3 9.2C76.1 13.6 75.4 18 74.9 22.6C74.4 26.4 74 30.2 72.2 36.9C72.4 35.2 72 33.3 71.6 31.5C70.9 28 70.4 24.6 69.6 21.1C68.8 17.4 67.7 13.7 66.9 10C66.5 7.8 66.1 5.6 65.6 3.4C65.4 2.5 65.2 1.7 65 0.899995C65.6 0.899995 66.2 0.799995 66.8 0.799995C71.1 0.499995 75.5 0.399996 79.7 1.1C80.4 0.999996 81.1 1.2 81.8 1.3Z" />
<path d="M80.4 155.6C81.2 155.4 82 155.2 82.8 154.9C82.2 155.8 81.4 156.7 80.5 157.4C79.2 158.6 77.6 159.5 75.9 160.2C73.9 161 71.8 161.4 69.7 161.4C67.3 161.4 64.9 160.7 62.7 159.6C61.3 158.9 60 157.9 58.8 156.8C58 156.1 57.4 155.2 56.8 154.4C58.2 154.9 59.6 155.3 61.1 155.7C63.2 156.2 65.4 156.5 67.6 156.7C70.1 156.9 72.5 156.8 75 156.6C76.8 156.3 78.6 156 80.4 155.6Z" />
<path d="M80.8 188.2C81.4 190.1 81.4 192.1 81.3 194.1C81.2 196.6 81.1 199 80.4 201.4C79.8 203.4 78.7 205.3 77.4 206.9C76.5 208 75.5999 208.9 74.5999 209.9C75.0999 208.1 75.4999 206.5 75.6999 204.9C75.8999 203.3 76 201.7 76 200C76 197.9 75.8999 195.9 75.5999 193.8C75.2999 192.3 74.8999 190.8 73.5999 189.6C72.9999 189 72.1999 188.5 71.5999 188.8C71.2999 188.9 71 189.2 70.8 189.5C70.3 190.3 70 191.1 69.8 191.9C69.5 193.2 69.4 194.4 69.4 195.7C69.3 198 69.1999 200.3 69.1999 202.7C69.1999 206.5 69.4 210.3 69.9 214.2C70.4 218.2 71.0999 222.2 72.6999 225.8C73.3999 227.2 74.2 228.5 75 229.8C74 228.8 72.9 227.9 71.9 227C70.9 226.1 70 225.3 69 224.4C67.1 222.5 65.4 220.4 64 218.1C62.6 215.7 61.6 213 60.9 210.3C60.1 206.8 59.7999 203.2 60.0999 199.6C60.3999 196.5 60.9999 193.5 62.1999 190.7C62.7999 189.4 63.3999 188.1 63.6999 186.7C64.1999 184.3 63.5999 181.8 63.0999 179.3C62.5999 176.8 62.3 174.4 61.9 172C61.4 169.4 60.7999 166.8 60.1999 164.3C61.9999 164.8 63.8999 165.3 65.6999 165.6C67.4999 165.9 69.4 166 71.3 166.1C72.7 166.2 74.1 166.2 75.4 166C76.7 165.8 77.9999 165.4 79.1999 164.9C78.7999 165.6 78.4 166.3 77.9 167C77.6 167.5 77.2 168 77 168.6C76.8 169.4 76.9 170.2 77 171.1C77.2 173.1 77.1 175 77 177C76.9 179.4 77 181.8 77 184.2C77.3 184.3 77.7 184.5 78 184.7C78.3 184.9 78.6 185.1 78.9 185.4C79.9 186 80.4 187 80.8 188.2Z" />
<path d="M64.1 82.8C64.1 85.2 63.7 87.5 63.2 89.9C62.5 86.7 61.9 83.5 60.9 80.4C59.9 77.1 58.5 73.8 56.5 71C53.6 66.9 49.2 63.9 44.6 61.7C40.9 60 37 58.9 33.1 58.1C29.4 57.4 25.5 57 21.7 57.3C18.8 57.5 15.9 58 13.2 59C11.6 59.6 10 60.3 8.40002 61.1C7.30002 61.7 6.19998 62.2 5.09998 62.8C5.99998 59.7 6.90002 56.6 7.90002 53.5C8.90002 50.2 10.1 47 11.4 43.9C12.8 40.6 14.3 37.5 15.9 34.3C18 35.1 20.2 35.9 22.3 36.8C24.8 38 27.2 39.3 29.5 40.8C33.7 43.3 37.7 46.1 41.5 49C47.2 53.5 52.6 58.6 56.8 64.5C59 67.6 61 71 62.4 74.6C63.3 77.2 64.1 80 64.1 82.8Z" />
<path d="M62.2 104C62.4 105.3 62.5 106.7 62 107.8C61.7 108.5 61.1 109.2 60.6 109.8C59.2 111.3 57.6 112.5 56 113.7C53.5 115.6 51.1 117.5 48.3 119C46.6 119.9 44.8 120.7 43.5 122.2C42.9 122.9 42.5 123.7 42 124.5C42 123.9 42 123.4 42.1 122.8C42.4 121.6 43.1 120.4 43.9 119.4C44.5 118.7 45.1 118.1 45.8 117.5C46.5 117 47.2 116.5 47.9 116.1C47.1 116.2 46.3 116.2 45.6 116.2C44.3 116.3 42.9 116.3 41.6 116.3C40.4 116.3 39.1 116.3 38 116.2C36.8 116.1 35.7 115.9 34.5 115.7C33.7 115.6 33 115.4 32.3 114.8C32 114.6 31.8 114.3 31.4 114.2C31.2 114.2 30.9 114.2 30.7 114.2C30.3 114.3 29.9 114.4 29.6 114.6C29 114.9 28.4 115.3 27.8 115.7C27.1 116.2 26.5 116.9 26.2 117.7C26 118.1 25.9 118.6 25.8 119C25.5 118.3 25.2 117.6 25.1 116.9C25.1 116.4 25.2 115.8 25.3 115.3C25.6 114.2 25.9 113.2 26.3 112.2C26.9 110.9 27.6 109.7 28.5 108.6C29.4 107.5 30.4 106.6 31.7 105.7C32.3 105.3 33 104.9 33.2 104.3C33.4 103.7 33.3 103 32.8 102.5C32.4 102.1 31.8 101.9 31.2 101.9C30.7 101.9 30.3 102.1 29.8 102.2C30.2 101.5 30.5 100.9 31 100.3C31.8 99.3 32.9 98.4 34.1 97.7C35.3 97 36.5 96.3 37.8 95.9C39.3 95.4 40.9 95.1 42.5 94.9C41.8 96.7 42.4 98.6 43.9 99.7C45.5 100.9 47.4 100.8 48.9 99.6C50.4 98.4 51 96.6 50.2 94.8C51.5 95 52.8 95.1 54.1 95.4C55.2 95.6 56.2 95.9 57.2 96.4C58.6 97.1 59.9 98.3 60.6 99.6C61.8 101 62 102.5 62.2 104Z" />
<path d="M61 137.5C59.2 137.4 57.4 137.3 55.6 137.4C53.8 137.5 51.9 137.8 50.1 138.3C47.7 139 45.3 140 43.3 141.7C41.7 143 40.3 144.8 39.5 146.8C38.8 148.7 38.7 150.7 39.1 152.7C39.4 154.3 39.9 155.9 41 157C41.7 157.7 42.5 158.2 43.4 158.6C43.4 161.6 43.4 164.7 43.4 167.7C43.4 170.5 43.4 173.3 43.4 176C43.9 176.5 44.4 176.9 44.8 177.4C46.3 179.1 47.4 181.1 48.3 183.2C49.9 186.7 50.9 190.4 51.2 194.1C51.5 197.9 51.1 201.6 50.3 205.5C49.7 208.2 49 210.9 47.4 213C46.8 213.7 46.2 214.4 45.5 215C45.8 214.3 46.2 213.5 46.4 212.7C46.8 211.4 46.7 209.9 46.7 208.5C46.7 206.2 46.9 204 46.8 201.7C46.7 198.7 46 195.8 45.2 192.9C44.4 190.3 43.5 187.8 42.1 185.5C41 183.6 39.6 182 38.1 180.4C36.6 178.9 35.1 177.5 33.9 175.8C32.4 173.7 31.5 171.1 31 168.5C30.5 165.8 30.4 163.1 30.4 160.3C30.4 157.6 30.5 154.8 30.9 152.1C31.2 149.7 31.7 147.3 32.5 145C33.4 142.5 34.6 140.1 36.1 137.9C37 136.5 38.1 135.1 39.2 133.8C39.7 133.3 40.2 132.7 40.7 132.3C41.6 131.5 42.7 130.9 43.8 130.8C44.6 130.7 45.5 131 46.3 131.3C47.2 131.6 48 131.9 48.8 132.3C50.7 133.1 52.6 133.7 54.4 134.5C56.7 135.4 58.8 136.5 61 137.5Z" />
<path d="M50.5 78C51 79 51.2999 80.2 51.6999 81.3C49.4999 79.5 47.3 77.7 45 76.1C42.5 74.3 39.9 72.8 37.1 71.5C34.5 70.3 31.8 69.4 29 69.2C26.6 69 24.1 69.4 21.9 70.3C19.5 71.2 17.4 72.8 15.6 74.6C13.5 76.7 11.8 79.1 10.4 81.7C8.9 84.4 7.79995 87.3 6.59995 90.1C7.99995 88.8 9.49998 87.5 11 86.4C13.6 84.5 16.5 83 19.5 81.8C22.4 80.7 25.4 79.8 28.5 79.6C31.6 79.4 34.7 79.8 37.7 80.8C40.2 81.7 42.6 83.1 44.6 84.9C45.9 86.1 46.9999 87.4 48.1999 88.7C46.3999 88.2 44.7 87.7 42.9 87.4C40.9 87 38.8 86.7 36.7 86.6C34.3 86.5 31.9 86.6 29.5 86.9C26.3 87.3 23.2 88.1 20.2 89.3C17 90.7 14 92.6 11.3 94.9C8.59996 97.3 6.29995 100.2 4.59995 103.3C2.79995 106.6 1.69995 110.2 0.599952 113.8C0.499952 109 0.300001 104.2 0.400001 99.3C0.600001 89 1.69999 78.7 3.69999 68.5C3.89999 67.3 4.19998 66 4.49998 64.8C7.19998 63.8 9.89999 62.9 12.7 62.3C16.5 61.5 20.3 61.2 24.2 61.6C28.8 62.1 33.4 63.5 37.2 65.9C39.3 67.2 41.3 68.9 43.3 70.4C44.8 71.6 46.3999 72.8 47.6999 74.2C48.9999 75.4 49.9 76.7 50.5 78Z" />
<path d="M27.1 166.3C28.7 170.2 29.4 174.5 29.3 178.8C29.2 182.5 28.5 186.2 27.2 189.6C26.4 192 25.3 194.2 24.2 196.5C24.5 195.1 24.7 193.7 24.9 192.3C25.1 190.7 25.1 189 25 187.4C24.9 184.9 24.6 182.5 24.1 180.1C23.5 177.1 22.6 174.2 21.2 171.5C19.7 168.7 17.8 166.1 15.7 163.7C14.3 162.1 12.9 160.5 11.8 158.8C10.2 156.3 9.3 153.3 8.7 150.4C8 146.7 7.8 142.9 8.2 139.2C8.5 136.5 9.1 133.8 9.7 131.1C9.3 131.9 8.80001 132.6 8.40001 133.4C7.70001 134.8 7.30001 136.4 6.90001 137.9C6.30001 139.9 5.7 141.9 5.7 144C5.7 145.9 6.29996 147.9 5.59996 149.5C5.29996 150.1 4.89999 150.6 4.49999 151.1C4.59999 150.5 4.69997 150 4.79997 149.4C4.89997 148.6 4.89997 147.8 4.79997 147.1C4.59997 145.7 4.1 144.4 3.7 143C2.8 139.8 2.69997 136.5 2.79997 133.2C2.89997 128.7 3.40001 124.3 4.40001 120C5.50001 115.2 7.3 110.4 10.2 106.3C12.5 103.1 15.4 100.4 18.7 98.4C21.5 96.6 24.6 95.4 27.7 94.1C25.8 96 23.9 97.9 22.3 100C20.4 102.7 19 105.9 18.2 109.3C17.5 112 17.2 114.8 17.1 117.4C17.1 120.1 17.4 122.6 17.7 125.7C17.8 126.3 17.8 127 18.2 127.4C18.5 127.6 18.8 127.7 19.2 127.7C19.6 127.7 19.9 127.5 20.2 127.4C20 129.4 19.8 131.3 19.7 133.3C19.4 137.7 19.7 142.1 20.2 146.5C20.5 149.6 20.9 152.8 22 155.7C23.2 159.3 25.6 162.6 27.1 166.3Z" />
</svg>
