<svg width="329" height="248" viewBox="0 0 329 248" fill="none" xmlns="http://www.w3.org/2000/svg">
<path d="M327.7 241.2C328.2 241.8 328.4 242.5 328.3 243.3C328.2 244.1 327.8 244.7 327.2 245.2C308.6 245.2 290 245.2 271.4 245.2C270.8 244.7 270.4 244 270.3 243.3C270.3 243.2 270.3 243.1 270.3 243C270.3 242.3 270.5 241.7 270.9 241.2C273 240.5 275.2 239.8 277.3 239.1C277.3 236.2 277.3 233.3 277.3 230.3C277.3 229 277.8 227.8 278.8 226.9C278.9 226.8 279 226.7 279.2 226.6C280.1 225.9 281 225.4 281.9 224.9C283 224.3 284.2 223.7 285.1 222.9C285.8 222.3 286.3 221.5 286.6 220.7C287 219.8 287 218.8 287.1 217.8C287.1 217.5 287.1 217.2 287.1 216.9C287.1 215.8 287.5 214.9 288.2 214.1C291 211 294.9 209.2 299.1 209.2C300.1 209.2 301.2 209.3 302.2 209.5C305.2 210.1 307.9 211.7 310 214.1C310.7 214.9 311.1 215.9 311.1 216.9C311.1 217.2 311.1 217.5 311.1 217.8C311.2 218.8 311.2 219.8 311.6 220.7C311.9 221.5 312.5 222.3 313.1 222.9C314 223.8 315.2 224.3 316.3 224.9C317.2 225.4 318.2 225.9 319 226.6C319.1 226.7 319.3 226.8 319.4 226.9C320.4 227.8 320.9 229 320.9 230.3C320.9 233.2 320.9 236.1 320.9 239.1C323.4 239.8 325.5 240.5 327.7 241.2Z" fill="#160032"/>
<path d="M304.1 43.4C308.1 49.9 312.2 56.5 316.3 63C316.2 63.6 316.1 64.3 315.9 64.9C315.6 65.9 315.2 66.8 314.8 67.7C313.7 70 312.3 72.2 310.6 74.1C309.4 75.4 308.1 76.5 306.7 77.6C305.8 66.2 304.9 54.8 304.1 43.4Z" fill="#160032"/>
<path d="M312.1 209.7L310.8 211.7C308.5 209.5 305.7 208.1 302.8 207.5C297.3 206.3 291.4 207.9 287.2 212.3C285.2 214.4 283.8 217 283.1 219.9L280.9 218.9C280.3 216.3 280.5 213.6 281.5 211.1C281.9 210.1 281.5 208.9 280.6 208.3C279.5 207.7 278.7 206.6 278.3 205.5C277.9 203.6 278.4 201.7 279.4 200.2C280.2 199.1 280.4 197.7 280 196.4L273.5 174.8C273 173.3 272.9 171.8 273 170.3C279.5 174.1 287.8 171.9 291.7 165.4C291.8 165.1 292 164.9 292.1 164.6C293 165.8 293.7 167.2 294.2 168.6L300.5 190.2C300.9 191.5 301.8 192.6 303.1 193.1C304.8 193.8 306.2 195.2 306.9 197C307.2 198.2 307.1 199.5 306.5 200.6C306 201.6 306.3 202.8 307.3 203.5C309.6 205 311.2 207.2 312.1 209.7Z" fill="#160032"/>
<path d="M306 79.5C305.9 80.6 305.8 81.7 305.7 82.8C305.5 84.9 305.2 87.1 304.9 89.1C304.4 92.3 303.7 95.3 303 98.6C302.6 100.3 302.2 102.1 301.1 103.4C300.5 104 299.8 104.5 299 104.9C297.4 105.6 295.7 105.9 294.1 106.2C292 106.6 289.8 107.2 287.7 107.7C286.4 108 285.1 108.2 283.9 108.6C282.9 109 281.8 108.6 281.2 107.7C280 105.7 279.4 103.5 279.4 101.2C280 94.8 276.5 89.4 270.5 87.2C264.5 85 258.4 87 254.7 92.3C252.1 96.2 251.6 100.6 253.1 104.6C253.7 106.1 254.5 107.5 255.7 108.8C255.7 109 255.6 109.2 255.6 109.3C255.6 109.5 255.5 109.6 255.4 109.8C255.3 110.1 255.1 110.3 254.9 110.5C254.7 110.7 254.4 110.8 254.1 110.8C253.7 110.9 253.2 110.8 252.8 110.8C252.1 110.7 251.5 110.6 250.9 110.4C250.2 110.2 249.5 110.1 248.8 109.9C247.9 109.6 246.9 109.3 246 109.1C242.4 108 238.8 106.9 235.1 105.8C230.8 104.5 226.5 103.3 222.5 101.8C222.1 101.7 221.8 101.5 221.4 101.4H221.3C225.6 101.3 230 101.3 234.3 101.2C237.9 93.9 241.5 86.7 245.1 79.4C265.4 79.5 285.7 79.5 306 79.5Z" fill="#160032"/>
<path d="M300.5 29.8C301.6 45.6 302.6 61.4 303.7 77.2C283.7 77.2 263.6 77.2 243.5 77C239.9 84 236.2 91.1 232.6 98.3C220.9 98.3 209.3 98.3 197.6 98.3C196.5 95.1 195.5 92.1 194.2 89.1C188.6 86.1 183.1 83.1 177.3 80.1C162.4 80.1 147.4 80.1 132.5 80.1C132.5 61.5 132.5 43.2 132.5 24.8C145.7 19.5 159 13.9 172.2 8.60001C173.9 6.00001 175.8 3.70001 177.5 1.30001C180.9 -0.199994 191.4 0.900005 196.1 0.900005C210.8 0.900005 225.5 0.900005 240.3 0.900005C242.4 2.80001 244.3 4.70001 246.5 6.70001C264.4 14.4 282.5 22.1 300.5 29.8ZM226.9 96.3C226.9 92.9 226.9 89.5 226.9 86.1C226.1 86.1 225 86.1 224.1 86.1C224.1 89.5 224.1 92.9 224.1 96.3C224.9 96.3 226 96.3 226.9 96.3ZM221.1 96.5C221.1 92.9 221.1 89.5 221.1 86.1C220.3 86.1 219.2 86.1 218.3 86.1C218.3 89.5 218.3 92.9 218.3 96.5C219.2 96.5 220.3 96.5 221.1 96.5ZM215.1 96.5C215.1 92.9 215.1 89.5 215.1 86.1C214.2 86.1 213.2 86.1 212.1 86.1C212.1 89.5 212.1 92.9 212.1 96.5C213.2 96.5 214.3 96.5 215.1 96.5ZM210 96.3C210 92.9 210 89.5 210 86.1C208.9 86.1 208.1 86.1 207 86.1C207 89.5 207 92.9 207 96.3C208.1 96.3 208.9 96.3 210 96.3Z" fill="#160032"/>
<path d="M291.9 158.3C291.9 160.3 291.4 162.3 290.5 164C289.4 166.1 287.6 167.9 285.3 169C279.5 171.8 272.6 169.4 269.8 163.6C269.8 163.5 269.7 163.5 269.7 163.4C269.6 162.8 269.9 162.2 270.5 162L290.4 157.2C290.5 157.2 290.6 157.2 290.6 157.2C291.4 157.2 291.9 157.6 291.9 158.3Z" fill="#160032"/>
<path d="M290.8 153.7C290.9 154.3 290.6 154.9 290 155.1L270.1 159.9C270 159.9 269.9 159.9 269.9 159.9C269.3 159.9 268.8 159.4 268.8 158.8C268.7 154.3 271.3 150.1 275.3 148.1C278.3 146.7 281.5 146.6 284.4 147.7C287.1 148.7 289.5 150.7 290.8 153.5C290.8 153.5 290.8 153.6 290.8 153.7Z" fill="#160032"/>
<path d="M277.7 106.2C281.3 119.7 284.8 133.2 288.4 146.6C288 146.8 287.7 147.2 287.7 147.7C286.8 147.1 285.8 146.6 284.8 146.2C279.2 144 273.2 145.6 269.3 150.7C269 150.5 268.7 150.5 268.4 150.7C265 137.6 261.7 124.4 258.3 111.3C261.3 113.2 264.7 113.9 268.1 113.3C268.5 113.2 268.8 113.2 269.2 113.1C272.9 112.1 275.9 109.7 277.7 106.2Z" fill="#160032"/>
<path d="M276.2 99.4C276.8 99.4 277.3 100 277.3 100.6C277 105.1 274 109 269.8 110.6C269.1 110.9 268.4 111 267.8 111.2C262.4 112.2 256.9 109.2 254.9 103.9C254.9 103.9 254.9 103.9 254.9 103.8C254.9 103.7 254.9 103.6 254.8 103.6C254.7 103 255.1 102.4 255.8 102.3L276.1 99.4C276 99.4 276.1 99.4 276.2 99.4Z" fill="#160032"/>
<path d="M276.6 96C276.7 96.6 276.3 97.2 275.6 97.3L255.3 100.2C255.2 100.2 255.1 100.2 255.1 100.2C254.5 100.2 254 99.6 254 99C254.3 94.5 257.3 90.5 261.5 89C267.5 86.7 274.2 89.8 276.5 95.8C276.6 95.8 276.6 95.9 276.6 96Z" fill="#160032"/>
<path d="M267.8 243.1C267.8 243.2 267.8 243.3 267.8 243.4C267.7 244.2 267.4 244.8 266.8 245.3C248.2 245.3 229.6 245.3 210.9 245.3C210.3 244.8 209.9 244.1 209.8 243.4C209.7 242.7 209.9 241.9 210.4 241.3C212.5 240.6 214.7 239.9 216.8 239.2C216.8 236.3 216.8 233.4 216.8 230.4C216.8 229.1 217.3 227.9 218.3 227C218.4 226.9 218.5 226.8 218.7 226.7C219.6 226 220.5 225.5 221.4 225C222.5 224.4 223.7 223.8 224.6 222.9C225.3 222.3 225.8 221.5 226.1 220.7C226.4 219.8 226.5 218.8 226.5 217.8C226.5 217.5 226.5 217.2 226.5 216.9C226.5 215.8 226.9 214.9 227.6 214.1C230.4 211 234.3 209.2 238.5 209.2C240.1 209.2 241.6 209.4 243.1 209.9C245.5 210.7 247.7 212.1 249.4 214.1C250.1 214.9 250.5 215.9 250.5 216.9C250.5 217.2 250.5 217.5 250.5 217.8C250.5 218.8 250.6 219.8 251 220.7C251.3 221.5 251.9 222.3 252.5 222.9C253.4 223.8 254.6 224.4 255.7 225C256.7 225.5 257.6 226 258.4 226.7C258.5 226.8 258.7 226.9 258.8 227C259.8 227.9 260.3 229.1 260.3 230.4C260.3 233.3 260.3 236.2 260.3 239.2C262.4 239.9 264.6 240.6 266.7 241.3C267.6 241.8 267.8 242.4 267.8 243.1Z" fill="#160032"/>
<path d="M257 114.7C257.7 117.6 258.5 120.5 259.2 123.3C256.9 131.9 254.6 140.5 252.2 149.1C251.7 149.1 251.3 149.3 251 149.7C247.7 142.9 240.6 140.2 233.6 143.1C233.4 142.8 233.1 142.6 232.8 142.6C235.8 131.7 238.8 120.9 241.9 110.1C242.1 110.2 242.2 110.2 242.4 110.3C243 110.5 243.7 110.7 244.3 110.9C245.2 111.2 246 111.4 246.9 111.7C247.4 111.8 247.8 112 248.3 112.1C248.7 112.2 249.2 112.3 249.6 112.4C250.2 112.5 250.7 112.7 251.4 112.8C251.7 112.9 252 112.9 252.3 113C252.5 113 252.7 113.1 253 113.1C253.3 113.1 253.5 113.2 253.9 113.1C254.1 113.1 254.3 113.1 254.6 113C255.7 112.8 256.7 113.5 257 114.7Z" fill="#160032"/>
<path d="M255.1 214L253.3 215.5C251.2 211.8 247.9 209.3 244.1 208C239.8 206.6 234.8 206.9 230.5 209.4C228 210.9 225.9 213 224.4 215.5L222.6 214C222.7 211.3 223.7 208.8 225.4 206.7C226.1 205.8 226.1 204.6 225.3 203.7C224.4 202.8 223.9 201.6 223.9 200.3C224.1 198.4 225 196.7 226.5 195.5C227.6 194.6 228.2 193.4 228.2 192L228.1 169.5C228.1 168 228.4 166.5 228.9 165.1C231 167.3 233.6 168.7 236.4 169.2C240.5 170 244.9 168.8 248.2 165.8C248.4 165.6 248.7 165.4 248.8 165.1C249.4 166.5 249.7 168 249.7 169.5L249.6 192C249.6 193.4 250.2 194.7 251.3 195.5C252.8 196.7 253.7 198.4 253.9 200.3C253.8 201.6 253.3 202.8 252.5 203.7C251.7 204.5 251.7 205.8 252.4 206.7C254 208.7 255 211.3 255.1 214Z" fill="#160032"/>
<path d="M239.8 144.2C246.2 144.7 250.9 150.4 250.4 156.8C250.4 156.9 250.4 157 250.4 157C250.2 157.6 249.6 157.9 249 157.8L229.4 151.7C229.3 151.7 229.3 151.6 229.2 151.6C228.7 151.3 228.5 150.6 228.8 150.1C230.1 147.8 232.1 146.1 234.4 145.1C236.1 144.3 237.9 144 239.8 144.2Z" fill="#160032"/>
<path d="M248.5 159.9C249 160.2 249.2 160.9 248.9 161.4C246.7 165.3 242.3 167.6 237.8 167.2C237.4 167.2 237 167.1 236.7 167.1C230.9 166 226.7 160.7 227.2 154.7C227.2 154.6 227.2 154.5 227.2 154.5C227.4 153.9 228 153.6 228.6 153.7L248.2 159.8C248.4 159.9 248.5 159.9 248.5 159.9Z" fill="#160032"/>
<path d="M196.1 100.6C201 100.5 205.9 100.5 210.8 100.4C210.7 100.7 210.6 100.9 210.5 101.1C210.3 101.4 210 101.7 209.6 101.9C209 102.4 208.3 102.8 207.5 103.1C206.6 103.5 205.6 103.8 204.6 104.1C201.8 104.9 198.9 105.5 196 106.1C191.3 107.1 186.6 108.2 181.9 109.1C178.3 109.7 174.7 110.2 171 110.5C169 110.7 166.9 110.8 164.9 110.9C164.9 110.3 164.9 109.6 164.9 109C169.8 103.9 170.2 96.8 165.8 91.2C161.4 85.6 154.5 84.2 148.3 87.6C147.8 87.9 147.1 87.8 146.7 87.3C146.5 87.1 146.5 86.9 146.7 86.7C147.3 86.1 147.8 85.4 148.4 84.9C149.1 84.2 149.8 83.6 150.5 82.9C154.8 82.7 159 82.5 163.3 82.4C167.6 82.2 171.8 82.2 176.1 82.1C181.3 85 186.5 87.9 191.7 90.9C193.3 94.1 194.7 97.3 196.1 100.6Z" fill="#160032"/>
<path d="M189.4 180.3C189.8 181 190 181.7 189.8 182.5C177.9 192.2 166.1 201.8 154.2 211.5C153.6 209.9 152.8 208.4 151.8 207.1C153 205.7 153.7 204.1 153.8 202.3C153.7 199.6 152.4 197.2 150.3 195.5C149.8 195.1 149.5 194.5 149.5 193.9C149.5 185.8 149.5 177.8 149.6 169.7C151.9 168.8 154.4 168.6 156.9 169C157.9 169.2 158.9 169.7 159.6 170.5C159.8 170.7 160 171 160.2 171.2C160.9 171.9 161.5 172.7 162.4 173.2C163.2 173.6 164.1 173.9 165 173.9C166.3 174 167.5 173.7 168.8 173.5C169.9 173.3 170.9 173.1 172 173.1C172.2 173.1 172.3 173.1 172.5 173.1C173.8 173.2 175 173.7 175.9 174.8C177.7 177.1 179.6 179.3 181.4 181.6C183.5 180.8 185.6 180 187.7 179.2C188.4 179.2 189 179.7 189.4 180.3Z" fill="#160032"/>
<path d="M156.1 87.9C162.5 88.4 167.2 94.1 166.7 100.5C166.7 100.6 166.7 100.7 166.7 100.7C166.5 101.3 165.9 101.6 165.3 101.5L145.7 95.4C145.6 95.4 145.6 95.3 145.5 95.3C145 95 144.8 94.3 145.1 93.8C147.3 89.8 151.6 87.6 156.1 87.9Z" fill="#160032"/>
<path d="M164.8 243.1C165.3 243.7 165.5 244.4 165.4 245.2C165.3 246 165 246.6 164.4 247.1C145.8 247.1 127.2 247.1 108.5 247.1C107.9 246.6 107.5 245.9 107.4 245.2C107.3 244.4 107.5 243.7 108 243.1C110.1 242.4 112.3 241.7 114.4 241C114.4 238.1 114.4 235.2 114.4 232.2C114.4 230.9 115 229.7 116 228.8C116.1 228.7 116.2 228.6 116.4 228.5C117.3 227.8 118.2 227.3 119.1 226.8C120.2 226.2 121.4 225.6 122.3 224.7C123 224.1 123.5 223.3 123.8 222.5C124.2 221.6 124.2 220.6 124.3 219.6C124.3 219.3 124.3 219 124.3 218.7C124.3 217.7 124.7 216.7 125.4 215.9C128.2 212.7 132.1 211 136.3 211C140.5 211 144.4 212.7 147.2 215.9C147.9 216.7 148.3 217.7 148.3 218.7C148.3 219 148.3 219.3 148.3 219.6C148.3 220.6 148.4 221.6 148.7 222.5C149 223.3 149.6 224.1 150.2 224.7C151.1 225.6 152.3 226.1 153.4 226.8C154.4 227.3 155.3 227.8 156.1 228.5C156.2 228.6 156.4 228.7 156.5 228.8C157.5 229.7 158 230.9 158 232.2C158 235.1 158 238 158 241C160.5 241.7 162.7 242.4 164.8 243.1Z" fill="#160032"/>
<path d="M164.8 103.7C165.3 104 165.5 104.7 165.2 105.2C163 109.1 158.6 111.4 154.1 111C147.7 110.4 143 104.8 143.5 98.4C143.5 98.3 143.5 98.2 143.5 98.2C143.7 97.6 144.3 97.3 144.9 97.5L164.5 103.6C164.7 103.6 164.7 103.7 164.8 103.7Z" fill="#160032"/>
<path d="M162 111.3C158 124.7 154 138 150 151.4C149.5 151.4 149.1 151.6 148.8 152C146 145.8 140 142.8 133.7 144.3C133 144.5 132.3 144.7 131.6 144.9C131.4 144.6 131.1 144.4 130.8 144.4C134.8 131.5 138.8 118.5 142.8 105.5C144.5 109 147.4 111.5 151.1 112.6C154.9 113.7 158.7 113.3 162 111.3Z" fill="#160032"/>
<path d="M161 165.6L160.6 167.9C157.1 166.6 153.3 166.4 149.7 167.6C150.7 163.5 150.8 159.2 150.3 155.1L151.5 155.9C152.3 156.9 152.6 158.2 152.5 159.4C152.4 160.5 153.2 161.5 154.3 161.7C156.8 162.2 159.2 163.6 161 165.6Z" fill="#160032"/>
<path d="M152.7 215.8L150.9 217.3C146.3 209.3 136.1 206.6 128.2 211.2C125.7 212.7 123.6 214.8 122.1 217.3L120.3 215.8C120.4 213.1 121.4 210.6 123.1 208.5C123.8 207.6 123.8 206.4 123 205.6C122.1 204.7 121.6 203.5 121.6 202.2C121.8 200.3 122.7 198.6 124.2 197.4C125.3 196.5 125.9 195.2 125.9 193.9L125.8 171.4C125.8 169.9 126.1 168.4 126.6 167C131.7 172.5 140.4 172.8 145.9 167.6C146.1 167.4 146.3 167.2 146.5 167C147.1 168.4 147.4 169.9 147.3 171.4L147.2 193.9C147.2 195.3 147.8 196.6 148.9 197.4C150.4 198.6 151.3 200.3 151.5 202.2C151.4 203.5 150.9 204.7 150.1 205.6C149.3 206.4 149.3 207.7 150 208.5C151.6 210.6 152.6 213.1 152.7 215.8Z" fill="#160032"/>
<path d="M137.4 146C143.8 146.5 148.5 152.2 148 158.6C148 158.7 148 158.8 148 158.8C147.8 159.4 147.2 159.7 146.6 159.5L127 153.4C126.9 153.4 126.9 153.4 126.8 153.3C126.3 153 126.1 152.3 126.4 151.8C128.1 148.8 130.9 146.8 134.2 146.1C135.2 146 136.3 145.9 137.4 146Z" fill="#160032"/>
<path d="M146.1 161.8C146.6 162.1 146.8 162.8 146.5 163.3C144.3 167.2 139.9 169.5 135.4 169.1C129.5 168.6 125.1 163.8 124.8 158.1C124.8 157.6 124.8 157.1 124.8 156.5C124.8 156.4 124.8 156.3 124.8 156.3C125 155.7 125.6 155.4 126.2 155.6L145.8 161.7C146 161.7 146 161.7 146.1 161.8Z" fill="#160032"/>
<path d="M143.7 90.9C143.7 91 143.7 91.2 143.7 91.3C141.4 94.5 140.6 98.3 141.3 102.2C141 103 140.8 103.9 140.5 104.7C137.9 112.5 135.4 120.3 132.8 128.1C132.4 128.6 131.9 129.2 131.4 129.6C130.7 130.2 129.8 130.6 128.9 131C127.8 131.5 126.6 131.9 125.5 132.6C124.9 133 124.2 133.4 123.7 133.9C123.3 134.3 122.9 134.8 122.6 135.3C122.4 135.6 122.3 135.8 122.2 136.1C122.9 136.8 123.7 137.5 124.4 138.3C125 138.9 125.6 139.5 126.1 140.1C126.5 140.6 126.9 141.1 127.2 141.6C127.5 142.3 127.6 143.1 127.5 143.9C127.4 144.7 127.2 145.4 126.9 146.1C126.5 147.1 125.9 148 125.3 148.9C124.7 149.7 124.2 150.6 123.7 151.5C123.5 151.9 123.3 152.3 123.2 152.7C123.1 153 123 153.2 123 153.5C123.1 155.1 123.1 156.6 123.2 158.2C123.3 160.4 123.4 162.6 123.5 164.8C123.6 167.5 123.7 170.2 123.5 173C123.4 174.4 123.3 175.8 123 177.1C122.8 177.9 122.6 178.7 122.4 179.5C122.4 179.5 122.4 179.6 122.3 179.6C122.3 179.6 122.2 179.6 122.2 179.5C121.8 178.9 121.7 178.7 121.6 178.6C121 177.6 120.1 175.7 119.1 173.6C118.3 171.9 117.5 170 116.8 168.4C111.1 160.9 105.4 153.3 99.7 145.8C99.6 145 99.8 144.2 100.2 143.4C105.2 145.8 110.6 144.9 114.6 141.1C118.6 137.2 119.6 131.8 117.3 126.8C115 121.8 110.3 118.9 104.8 119.4C104.8 119.4 104.8 119.3 104.7 119.3C104.7 119.2 104.6 119.1 104.6 119C104.6 118.8 104.6 118.6 104.6 118.3C104.7 117.9 104.9 117.6 105.1 117.2C105.4 116.8 105.7 116.4 106.1 116.1C106.5 115.8 106.9 115.5 107.3 115.2C118.4 107 129.4 98.8 140.5 90.7C140.7 90.6 140.9 90.4 141.1 90.3C141.4 90.1 141.7 90.1 142.1 90.1C142.5 90.1 142.8 90.1 143.2 90.3C143.4 90.4 143.5 90.5 143.7 90.6C143.6 90.6 143.7 90.8 143.7 90.9Z" fill="#160032"/>
<path d="M130.7 49H124.3V78.2H130.7V49Z" fill="#160032"/>
<path d="M122.6 49H116.4V78.2H122.6V49Z" fill="#160032"/>
<path d="M117 129C118.2 133.4 116.7 138.1 113.2 141C108.3 145.1 101 144.5 96.8001 139.5C96.7001 139.4 96.7001 139.4 96.7001 139.3C96.4001 138.7 96.6001 138.1 97.2001 137.8L115.4 128.3C115.5 128.3 115.5 128.2 115.6 128.2C116.2 128 116.8 128.4 117 129Z" fill="#160032"/>
<path d="M114.8 124.8C115.1 125.3 114.9 126 114.3 126.3L96.1 135.8C96 135.8 95.9999 135.9 95.8999 135.9C95.2999 136.1 94.7 135.7 94.5 135.1C93.3 130.7 94.7999 126.1 98.2999 123.2C103.2 119.1 110.5 119.7 114.7 124.7C114.7 124.6 114.8 124.7 114.8 124.8Z" fill="#160032"/>
<path d="M114.6 49H108V78.2H114.6V49Z" fill="#160032"/>
<path d="M106.6 49.2C106.6 58.9 106.6 68.5 106.6 78.2C104.8 78.2 103 78.2 101.3 78.2C101.7 80 102.2 81.9 102.6 83.7C103.6 83.7 104.6 83.7 105.6 83.7C105.4 84.8 105.2 85.8 105 86.9C103.1 86.9 101.3 86.9 99.5 86.9C99.6 88.2 99.6 89.6 99.7 90.9C92.7 90.9 85.8 90.9 78.8 90.9C77.9 92 77 93.2 76 94.3C73.8 94.9 71.6 95 69.4 94.7C68.3 93.8 67.3 92.9 66.2 91.9C65.5 92.8 64.8 93.8 64.1 94.7C59.3 95.9 54.3 96 49.4 95.1C48.8 94.3 48.1 93.5 47.5 92.7C32.2 92.8 16.9 93 1.50002 93.1C1.00002 93.1 0.600013 92.8 0.400013 92.3C-0.0999865 90.9 -0.0999774 89.4 0.300023 87.9C0.500023 87.4 0.900013 87.1 1.40001 87.1C11.3 87 21.2 86.9 31.1 86.8C31.8 84.2 33.4 82.1 35.7 80.9C35.1 80.4 34.5 80 33.9 79.5C30.1 79.5 26.3 79.5 22.6 79.5C22.6 79.7 22.6 79.9 22.6 80C22.1 80 21.6 80 21.1 80C21.1 78.5 21.1 77 21.1 75.5C21.6 75.5 22.1 75.5 22.6 75.5C22.6 75.7 22.6 75.9 22.6 76.1C25.3 76.1 28 76.1 30.7 76.1C30.1 75.3 29.7 74.5 29.4 73.7C28.6 71.5 29.5 69.4 31.5 68.2C34.3 66.6 37.1 65 39.8 63.4C40 62.5 40.3 61.6 40.6 60.6C40.9 59.6 41.4 58.6 42.1 58C42.8 57.4 43.7 57 44.6 56.7C45.8 56.3 47 56.1 48.2 56C48.6 56 49.1 55.9 49.6 55.9C50 54.5 50.3 53.1 50.7 51.6C56.5 49.9 62.2 48.2 68 46.5C68.4 47.2 68.8 47.9 69.1 48.7C69.4 49.5 69.6 50.3 69.9 51C79.9 48.7 89.9 46.3 100 44C100 45.6 100 47.3 100 48.9C102 49.2 104.3 49.2 106.6 49.2ZM98 78.8C98 76.7 98 74.7 98 72.6C95.6 72.7 93.3 72.7 91 72.8C91 74.8 91.1 76.8 91.1 78.8C93.4 78.8 95.7 78.8 98 78.8ZM97.8 68C97.6 64.5 97.4 60.9 97.2 57.3C92.8 57.3 88.4 57.3 84 57.3C85.9 60.7 87.8 64.1 89.8 67.5C90.9 67.5 92.1 67.6 93.2 67.6C94.7 67.7 96.2 67.8 97.8 68ZM84.8 67.7C82.4 64.2 80 60.7 77.5 57.3C73 57.3 68.5 57.3 64.1 57.3C64.7 57.9 65.3 58.5 65.9 59.1C66.9 60 67.9 60.7 68.9 61.6C69.9 62.5 70.8 63.4 71.5 64.6C72 65.6 72.3 66.7 72.7 67.8C76.7 67.7 80.7 67.7 84.8 67.7ZM69.6 72.6C69.6 65.1 63.5 59 56 59C48.5 59 42.4 65.1 42.4 72.6C42.4 80.1 48.5 86.2 56 86.2C63.6 86.2 69.6 80.1 69.6 72.6Z" fill="#160032"/>
<path d="M56.1 60.7C62.7 60.7 68 66 68 72.6C68 79.2 62.7 84.5 56.1 84.5C49.5 84.5 44.2 79.2 44.2 72.6C44.2 66 49.5 60.7 56.1 60.7Z" fill="#160032"/>
</svg>
