<svg width="165" height="267" viewBox="0 0 165 267" fill="currentColor" xmlns="http://www.w3.org/2000/svg">
<path d="M163.8 130.3C164.2 131.1 164.3 132.1 164.1 132.9C164 133.5 163.7 134 163.5 134.5C162.9 136.2 162.6 138.1 162.4 139.9C162.2 141.8 162.1 143.6 162.2 145.8C162.3 147 162.4 148.4 161.8 149.1C161.2 149.7 160 149.7 159.2 150.2C158.2 150.7 157.6 151.7 157.1 152.8C156 155.3 155.9 157.9 156 160.7C156.1 162.7 156.2 164.7 155.4 166.3C154.8 167.6 153.5 168.5 152.6 169.7C151.5 171.1 150.9 172.9 150.6 174.7C150.2 176.8 150.2 179 150.5 181.1C150.9 184.1 151.7 186.9 152.1 189.8C152.5 193.1 152.3 196.5 150.7 199.2C149.3 201.7 146.7 203.6 144.3 205.6C141.5 208 139 210.5 136.9 213.3C133.3 218 130.6 223.5 128.5 229.2C126.8 233.8 125.6 238.5 125.2 243.4C124.9 247.6 125.1 251.8 123.7 255.7C122.6 258.8 120.5 261.6 117.7 263.4C115.2 265 112.3 265.7 109.3 265.6C105.9 265.5 102.4 264.3 100.3 262.1C97.8 259.5 97 255.4 96.5 251.5C95.5 243.1 95.7 235.4 95.9 227.5C96.1 220.2 96.2 212.7 96.8 205.3C97.3 198.2 98.3 191.1 99.3 184C99.9 179.9 100.5 175.8 101 171.7C99.5 171.8 98 171.9 96.7 171.3C95.9 170.9 95.2 170.3 94.4 169.8C93.3 169.2 92.1 169 90.8 168.9C89 168.7 87 168.8 85.4 169.7C84.5 170.2 83.7 170.9 82.8 171.6C83.5 178.7 84.2 185.8 85.1 192.9C85.9 199.4 86.7 205.8 87.3 212.4C88.2 222.2 88.5 232.2 86.9 242C86.2 246.2 85.2 250.3 83.3 254C81.4 257.7 78.7 260.9 75.2 263.2C71.9 265.3 68 266.6 64.3 266C60.9 265.4 57.7 263.2 55.5 260.4C53 257.2 51.8 253.3 51.2 249.3C50.7 246 50.6 242.6 50 239.4C49 234.2 46.7 229.3 44.4 224.3C42.9 220.9 41.4 217.5 39 215C36.4 212.2 32.6 210.4 29.1 208.3C25.7 206.2 22.4 203.8 20.5 200.5C19.4 198.7 18.8 196.6 18 194.6C16.1 189.5 13.4 184.7 12.7 179.5C12.4 177.3 12.4 174.9 12.4 172.6C13.4 173 14.5 173.5 15.5 173.9C17.2 174.6 18.9 175.2 20.6 176.1C22.2 176.9 23.9 178.1 25.5 177.8C26.6 177.6 27.6 176.6 28.4 175.6C29.9 173.7 30.5 171.7 31 169.5C31.4 167.4 31.6 165.2 31.3 163.1C31.1 161.6 30.6 160.1 30.1 158.7C30 160.4 29.9 162.2 29.7 163.9C29.3 166.9 28.5 169.7 26.6 172.4C25.8 173.5 24.9 174.6 23.7 174.9C22.8 175.1 21.8 174.8 20.8 174.5C18.7 173.7 17 172.5 14.9 171.8C13.5 171.3 11.9 171 10.9 170C9.89998 169 9.39998 167.4 8.99998 165.9C7.99998 162.4 7.09998 159.2 6.09998 156.1C5.99998 155.8 6.09998 155.4 6.39998 155.2C6.69998 155 6.99998 155 7.29998 155.2C8.59998 156 9.79998 156.8 11.1 157.5C12.3 158.1 13.5 158.7 14.8 159C16.4 159.3 18.1 159 19.7 158.4C20.8 158 21.9 157.5 22.9 156.9C23.8 156.3 24.6 155.7 24.9 154.7C25.2 153.9 25.1 152.8 24.4 152.1C24.2 151.9 23.9 151.7 23.6 151.7C23.1 151.6 22.6 152.1 22.2 152.5C21.1 153.5 20.1 154.1 18.9 154.9C17.7 155.7 16.4 156.7 15 156.7C14.2 156.7 13.5 156.3 12.8 155.7C12.2 155.1 11.7 154.3 11.9 153.7C12.1 153.2 12.8 152.8 13.4 152.5C14.4 152 15.1 151.6 16 151.1C16.6 150.8 17.2 150.5 17.3 149.8C17.4 149.2 17 148.3 16.6 148.2C16.2 148.1 15.8 148.8 15.4 149.3C14.8 150 14.2 150.4 13.5 150.6C12.1 151.2 10.5 151.6 8.79998 151.9C7.29998 152.2 5.69998 152.3 4.69998 151.7C3.59998 151 3.29998 149.3 2.79998 147.3C2.49998 146.1 2.19998 144.9 2.89998 144.6C3.09998 144.5 3.39998 144.6 3.69998 144.6C4.49998 144.9 4.79998 145.7 5.29998 146.4C5.69998 146.9 6.29998 147.2 6.89998 147.3C7.69998 147.4 8.59998 147.2 9.39998 146.9C10.4 146.5 11.5 146 12.3 145.6C13.6 144.9 14.4 144.1 16.1 142.4C17.1 141.4 18.4 139.9 17.7 139.9C17.5 139.9 17.3 139.9 17 140C16.1 140.2 15.6 140.7 15 141.2C14.4 141.8 13.8 142.4 13.1 142.9C12.1 143.7 11 144.3 9.89998 144.5C8.79998 144.7 7.79998 144.6 6.59998 144.1C5.29998 143.6 3.99998 142.8 3.79998 141.7C3.49998 140.5 4.69998 138.9 6.09998 138.1C7.39998 137.2 8.89998 137.2 10.3 136.9C11.9 136.6 13.4 136 15 135.3C16.6 134.7 18.3 134 19.4 132.9C19.8 132.5 20.2 132 20.5 131.5C20.6 131.3 20.6 131.1 20.4 131C20.3 130.9 20.1 130.9 19.9 131C19 131.6 18.2 132.1 17.3 132.6C15.9 133.4 14.4 134 12.7 134C11.3 134 9.79998 133.6 8.49998 133.8C6.89998 134.1 5.59998 135.2 3.99998 136.6C3.09998 137.4 1.99998 138.2 1.19998 137.7C0.899981 137.5 0.699981 137.2 0.499981 136.8C0.199981 135.9 0.799982 134.9 1.29998 134C2.09998 132.4 2.59998 130.9 2.89998 129.3C3.29998 127.4 3.49998 125.3 4.29998 123.5C5.19998 121.6 6.69998 120 8.49998 118.8C11.2 117 14.4 116 17.6 115.5C21.4 114.9 25.1 114.9 29.1 115C31.5 115.1 33.9 115.2 35.9 114.1C37.2 113.4 38.3 112.1 39.7 111.6C40.9 111.2 42.4 111.3 43.6 110.8C44.8 110.3 45.7 108.9 46.8 108.1C47.7 107.4 48.8 107.1 49.9 106.6C50.7 106.3 51.5 105.9 52.2 106C52.8 106.1 53.4 106.6 53.9 107.2C54.5 108 54.9 108.8 55.2 109.7C55.5 110.7 55.8 111.7 56.1 112.7C56.7 114.5 57.7 116.3 59.2 117.4C60.4 118.3 62 118.8 63.5 119.4C65.9 120.3 68.1 121.6 70.4 122.4C72.2 123.1 74.2 123.5 76.2 123.9C74.5 123.1 72.8 122.2 71.1 121.4C68.7 120.3 66.3 119.2 64.1 117.7C61.8 116.1 59.7 114.1 58.2 111.8C57.4 110.6 56.8 109.2 56.1 107.9C55.7 107 55.2 106.2 55.2 105.2C55.2 104.5 55.4 103.7 55.8 103.1C56.2 102.5 56.7 102.1 57.3 101.7C58 101.2 58.7 100.8 58.9 100.1C59.1 99.5 58.8 98.8 58.9 98.1C58.9 97.4 59.2 96.8 59.8 96.5C60.3 96.2 61.1 96.3 61.5 96C62.1 95.6 61.8 94.4 61.6 93.5C61.5 92.9 61.3 92.3 61.3 91.8C61.2 90.9 61.1 90 61.2 88.9C61.3 88.3 61.4 87.7 61.5 87.4C61.5 87.3 61.6 87.3 61.6 87.3C62 87.3 62.4 89.9 63 91.7C63.7 94.2 64.5 95.3 65.4 96.7C66.2 97.9 67.1 99.4 68.3 100.4C69.3 101.2 70.4 101.7 71.5 102.4C73.3 103.6 74.6 105.3 76.2 106.8C77.5 108 78.9 109 80.4 109.9C81.2 110.3 82 110.8 82.8 111C84.1 111.4 85.4 111.5 86.8 111.5C86.7 112.1 86.7 112.7 86.7 113.2C86.7 114.2 87 115.2 87.4 116C87.6 116.5 87.9 116.9 88.4 117.2C88.7 117.4 89.1 117.6 89.2 117.9C89.3 118.2 89.1 118.7 88.9 119.1C88.4 120.2 88.4 121.3 88.7 122.4C88.9 123.1 89.1 123.8 89.5 124.4C89.8 125 90.3 125.5 90.8 125.9C91.4 126.3 92 126.5 92.9 126.6C93.2 126.6 93.4 126.6 93.5 126.4C93.5 126.3 93.5 126.3 93.4 126.1C93.4 126.1 93.4 126.1 93.3 126C93.3 125.9 93.2 125.9 93.1 125.9C91.6 125.5 90.4 124.4 89.9 123C89.4 121.6 89.5 120 90.3 118.7C90.5 118.3 90.4 117.9 90.1 117.6C88.3 116.3 87.5 114.3 88 112.1C88.5 110 90 108.4 92.2 108C92.4 107.9 92.6 107.8 92.8 107.6C92.9 107.4 92.9 107.1 92.8 106.9C91.5 104 91.4 100.6 92.4 97.5C93.5 94.4 95.5 92.2 98 91.5C98 89.3 98 87.2 98 85C98 84.8 98.2 84.6 98.4 84.6C98.5 84.6 98.5 84.6 98.6 84.6C98.8 84.6 99 84.4 99 84.2C99 84.1 99 84.1 99 84C99 83.8 99.2 83.6 99.4 83.6C99.8 83.6 100.1 83.6 100.5 83.6C100.7 83.6 100.9 83.8 100.9 84C100.9 84.1 100.9 84.1 100.9 84.2C100.9 84.4 101.1 84.6 101.3 84.6C101.4 84.6 101.4 84.6 101.5 84.6C101.7 84.6 101.9 84.8 101.9 85C101.9 87.2 101.9 89.4 101.9 91.5C103.7 92.1 105.2 93.4 106.3 95.2C106.7 95.8 107 96.5 107.3 97.2C108.3 100 108.4 103.2 107.4 106C107.3 106.2 107.3 106.5 107.5 106.7C107.6 106.9 107.8 107 108 107.1H108.1C108.2 107.1 108.3 107.1 108.4 107C108.5 106.9 108.5 106.8 108.6 106.7C108.6 106.4 108.9 106.1 109.1 105.9C109.6 105.6 110.2 105.6 110.8 105.7C111.5 105.9 112 106.2 112.6 106.6C114 107.5 115.5 108.5 117.1 109.4C118.5 110.1 120 110.7 121.5 110.7C122.6 110.7 123.8 110.4 124.6 109.7C125.6 108.9 126.1 107.5 127.2 106.9C128.1 106.4 129.3 106.5 130.1 107.2C130.8 107.7 131.2 108.7 131.8 109C132.6 109.3 133.6 108.8 134.7 108.4C136.3 107.9 137.8 107.9 139.2 108C140.5 108.1 141.8 108.3 143.1 108.7C145.3 109.3 147.2 110.3 149 111.7C151 113.3 152.7 115.2 154.5 117.1C156.8 119.5 159.2 121.7 159.7 125.4C159.9 126.6 159.9 127.9 160.6 128.3C161.1 128.6 162 128.6 162.6 128.9C163.1 129.2 163.5 129.8 163.8 130.3ZM158 147C158.2 146.6 158 146.1 157.7 145.6C157.3 144.9 156.9 144.4 156.4 143.8C155 142.3 153.4 140.8 151.6 139.5C150.8 138.9 150 138.4 149.2 137.9C149 137.8 148.7 137.8 148.5 137.9C148.3 138 148.2 138.3 148.3 138.5C148.6 139.8 149 141.1 149.3 142.4C150.1 145.3 150.9 148.4 151.4 151.5C151.7 153.3 152 155.1 152.2 156.9C152.2 157.1 152.3 157.2 152.5 157.2C152.7 157.2 152.8 157.1 152.8 156.9C152.9 155.4 153 154.1 153.1 152.6C153.1 150.7 153.1 148.6 154 147.7C154.2 147.5 154.4 147.4 154.8 147.3C155.3 147.3 155.9 147.4 156.6 147.4C157.1 147.6 157.8 147.4 158 147ZM150 117.2C150.1 117.1 150 116.9 149.9 116.8C149.5 116.6 149.1 116.3 148.8 116.1C147.1 115.2 145.1 114.6 143.1 114.5C141.3 114.3 139.5 114.5 137.8 115C136 115.5 134.2 116.5 132.7 117.7C130.5 119.4 128.7 121.7 127.2 124.1C126.7 124.9 126.2 125.7 125.8 126.5C125.7 126.6 125.8 126.8 125.9 126.9C126 127 126.2 127 126.3 126.9C127.1 126.1 127.8 125.4 128.6 124.6C130.2 123 131.8 121.4 133.5 119.8C134.9 118.5 136.4 117.2 138.1 116.6C139.7 116.1 141.5 116.1 143.2 116.2C144.7 116.4 146.1 116.6 147.5 116.9C148.3 117.1 149 117.2 149.8 117.4C149.8 117.4 149.9 117.3 150 117.2ZM149.3 162.5C149.3 160.5 149.2 158.7 149.1 156.9C148.9 153.6 148.6 150 147.9 146.4C147.4 143.6 146.7 140.9 145.6 138.4C144.8 136.6 143.7 135.1 142.2 133.8C141.4 133.1 140.4 132.5 139.4 132.1C138.7 131.8 137.9 131.7 137.1 131.5C136.5 131.4 135.9 131.4 135.3 131.3C135.1 131.3 134.9 131.4 134.9 131.6C134.8 131.8 134.9 132 135.1 132.1C135.7 132.4 136.3 132.8 136.9 133.1C138.5 134 140.1 135.1 141.4 136.4C142.5 137.5 143.3 138.7 144 140.1C145.5 143.1 146.1 146.6 146.6 150.1C146.9 152.6 147.1 155.1 147.5 157.6C147.8 159.2 148.1 160.9 148.5 162.5C148.5 162.7 148.7 162.8 148.9 162.8C149.1 162.9 149.3 162.8 149.3 162.5ZM147.6 192.3C148.6 188.2 148.2 183.9 147.7 179.6C147.1 174.9 146.3 170.3 145.8 165.6C145.3 161.1 145.1 156.5 144.2 152C143.8 150.2 143.4 148.5 142.9 146.8C142.8 146.6 142.7 146.5 142.5 146.5C142.3 146.5 142.1 146.7 142.1 146.9C141.9 150.6 141.6 154.2 141.3 157.9C140.9 163.3 140.3 168.7 140 174.1C139.8 176.4 139.7 178.6 139.7 180.9C139.6 185.6 139.6 190.3 139.8 195.1C139.9 197.4 140 199.7 140 202.1C140 202.4 140.2 202.7 140.5 202.8C140.8 202.9 141.1 202.8 141.4 202.6C142.3 201.6 143.2 200.7 144 199.6C145.7 197.4 146.9 194.9 147.6 192.3ZM131.9 180C132.2 173.2 132.4 166.4 131.4 159.6C131 156.7 130.3 153.8 128.9 151.3C128.5 150.5 128 149.8 127.5 149.1C127.4 148.9 127.2 148.9 127 149C126.8 149.1 126.7 149.3 126.8 149.5C127.2 150.5 127.5 151.5 127.7 152.6C128 153.9 128.3 155.5 127.3 156.4C126.8 156.9 126 157.2 125.5 157C125.3 157 125.2 156.9 125 156.7C124.9 156.6 124.7 156.5 124.5 156.6C124.3 156.7 124.3 156.9 124.3 157C124.7 158.5 125.2 160 125.5 161.5C126.5 166.2 126.6 171 126.8 175.8C127.3 187.3 128.5 198.7 127.9 210.1C127.6 214.7 127.1 219.2 126.6 223.8C127.5 221.4 128.4 219 129 216.6C130.2 211.9 130.4 206.9 130.6 202C131.1 194.8 131.5 187.4 131.9 180ZM125.9 136.8C126 136.2 125.8 135.4 125.5 134.8C125 133.8 124.2 133 123.4 132.3C121.9 130.9 120.6 129.7 119.1 128.4C118.1 127.5 117 126.6 115.9 125.8C114.9 125 113.9 124.5 112.6 124.1C111.9 123.9 111.2 123.8 111 123.2C110.9 122.7 111.3 121.8 111.5 121C111.7 120.2 111.6 119.6 111.4 119C111.2 118.5 111 117.9 111.2 117.5C111.4 117.1 111.8 116.7 112.2 116.3C112.7 115.8 113 115.2 113.2 114.7C113.6 113.6 113.7 112.6 113.3 111C113 109.8 112.4 108.4 111.6 108.9C111.5 108.9 111.5 109 111.4 109.2C113.2 111.7 112.7 114.8 110.1 116.6C109.8 116.9 109.7 117.3 109.9 117.7C111.1 119.7 110.8 122 109.2 123.7C109.1 123.8 109 124 109.1 124.1C109.2 124.3 109.3 124.4 109.5 124.4C109.6 124.4 109.6 124.4 109.7 124.4C110.3 124.4 110.8 124.5 111.3 124.6C112.4 124.9 113.5 125.4 114.4 126.1C115.5 126.9 116.4 127.8 117.3 128.7C118.3 129.7 119.4 130.7 120.5 131.6C121.6 132.6 122.6 133.5 123.5 134.8C123.9 135.4 124.3 136.1 124.3 136.7C124.2 137.4 123.6 138.1 123 138.8C122 139.9 121.1 141.1 121 142.4C120.9 143.7 121.4 145.2 121.4 146.4C121.3 147.3 120.9 148 120.3 149.2C119.6 150.7 118.5 153 119.2 152.8C119.4 152.7 119.8 152.3 120.2 151.9C121 151 121.4 150.3 121.8 149.5C122.1 148.9 122.3 148.3 122.6 147.6C122.9 146.6 123.2 145.6 123.1 144.6C123.1 143.6 122.8 142.5 123 141.6C123.2 140.8 123.9 140 124.5 139.3C125.2 138.6 125.8 137.8 125.9 136.8ZM124.1 206.6C124.4 198.8 124.7 191 124 183.8C123.7 180.8 123.3 177.9 123 174.7C122.9 173.9 122.9 173 122.8 172.1C122.7 170.1 122.7 167.9 121.5 166.8C120.2 165.5 117.6 165.6 115.3 166.1C112.9 166.7 110.9 167.7 109.5 169.4C108.3 170.8 107.4 172.7 106.9 174.7C106.4 176.4 106.3 178.2 106 180C105.3 184.8 104.2 189.5 103.5 194.2C102.8 199 102.5 203.9 102.2 208.8C102.1 210.9 102 213.1 101.8 215.2C101.5 221.5 101.1 227.7 100.8 234C100.5 238.8 100.2 243.5 100.8 248.4C101.2 251.4 101.8 254.4 103.8 256.6C105.4 258.5 108 259.7 110.5 259.7C113 259.6 115.5 258.2 117.2 256.3C119.7 253.4 120.4 249.4 121 245.5C121 245.4 121 245.4 121 245.3C122 238.6 122.8 232.3 123.2 225.8C123.7 219.3 123.9 213 124.1 206.6ZM109.9 156.5C110 155.6 109.5 154.5 108.9 153.9C107.9 153 106.4 153 105 152.9C102.5 152.7 100.3 152.4 98 151.8C95.8 151.3 93.6 150.5 91.4 150C88.8 149.4 86.2 149 83.3 148.7C82.2 148.6 81.1 148.4 80 148.5C79.1 148.6 78.1 148.8 77.6 149.5C76.9 150.3 76.7 151.8 77.1 152.8C77.3 153.4 77.6 153.8 78.1 154.1C78.7 154.5 79.6 154.5 80.4 154.6C82.6 154.8 84.6 155.6 86.6 156.2C88.2 156.7 89.9 157.1 91.6 157.6C92.5 157.9 93.4 158.1 94.3 158.1C95 158.1 95.6 157.9 96.3 157.9C96.9 157.9 97.6 158.1 98 157.9C98.4 157.6 98.5 156.9 98.7 156.3C98.9 155.6 99.3 154.9 100 154.7C100.5 154.6 101.1 154.6 101.4 154.9C101.8 155.3 101.7 156 101.6 156.7C101.5 158 101.6 159 101.7 160.1C102.5 160.2 103.3 160.4 104.1 160.5C104.9 160.6 105.7 160.7 106.4 160.6C107.2 160.4 108 159.9 108.6 159.3C109.2 158.4 109.8 157.5 109.9 156.5ZM108.7 112.4C108.7 111.4 107.9 110.7 107 110.7C106.1 110.7 105.3 111.5 105.3 112.4C105.3 113.4 106.1 114.1 107 114.1C107.9 114.1 108.7 113.4 108.7 112.4ZM107.5 120.3C107.5 119.3 106.7 118.6 105.7 118.6C104.7 118.6 104 119.4 104 120.3C104 121.3 104.8 122 105.7 122C106.7 122.1 107.5 121.3 107.5 120.3ZM105.1 167.7C105.6 167.1 106 166.2 105.8 165.5C105.6 164.8 105.1 164.3 104.5 163.9C103.4 163.2 102.2 162.9 101 162.7C100.7 162.6 100.4 162.6 100.1 162.5C97.6 161.9 95 161.3 92.5 160.6C91.3 160.3 90 159.9 88.8 159.6C87.2 159.2 85.7 158.8 84.1 158.5C83.3 158.4 82.6 158.2 81.9 157.9C81.1 157.6 80.4 157.2 79.6 157.4C79.2 157.5 78.8 157.9 78.6 158.3C78.2 159.2 78.9 160.2 79.4 161.1C79.9 162.1 80.1 162.9 80.7 163.9C80.9 164.2 81.1 164.5 81.3 164.6C81.8 164.8 82.4 163.9 83 163.3C83.4 162.9 83.9 162.6 84.3 162.6C84.8 162.7 85.2 163.2 85.7 163.7C86.8 164.7 88.1 165 89.4 165.3C90.6 165.6 91.8 165.8 93 165.9C94.4 166.1 95.8 166.1 97.3 166.2C97.7 165.8 98.1 165.4 98.5 164.9C99 164.4 99.6 163.8 100.1 164C100.4 164.1 100.7 164.4 100.9 164.8C101.1 165.4 100.8 166.1 100.3 166.7C100.1 167 99.8 167.2 99.7 167.5C99.7 167.7 99.8 168 100 168.3C100.6 169.1 101.7 169.1 102.6 169C103.5 168.7 104.4 168.4 105.1 167.7ZM105.2 149.7C105.5 149 105.5 148 105.2 147.2C104.7 145.8 103.4 144.9 102 144.2C100.7 143.5 99.4 143 98 142.6C97.3 142.4 96.6 142.3 95.9 142.2C92.9 141.7 89.7 141.9 86.8 140.8C85.4 140.3 84.1 139.5 82.8 139.1C81.7 138.8 80.5 138.7 79.3 138.6C78.6 138.6 78 139 77.9 139.7C77.8 140 77.8 140.3 77.6 140.6C77.3 141.4 76.8 142.1 76.4 143.1C76 144.1 75.6 145.4 76.3 146C76.5 146.2 76.9 146.3 77.2 146.3C77.9 146.3 78.6 146 79.2 145.7C80.8 145.1 82.7 145.4 84.4 145.8C85.7 146.1 86.9 146.5 88.1 146.9C89.8 147.5 91.5 148 93.3 148C94.3 148 95.3 147.8 96.2 147.5C97 147.2 97.6 146.7 98.3 146C98.9 145.5 99.5 144.9 100.2 144.9C100.5 144.9 100.9 145.1 101.1 145.4C101.4 145.8 101.3 146.5 100.9 147C100.6 147.5 100.1 147.9 100.1 148.4C100 148.9 100.2 149.5 100.6 150C101.3 150.8 102.4 150.9 103.4 150.8C104.3 150.8 104.9 150.4 105.2 149.7ZM105.8 101.7C105.8 98 103.2 95 99.9 95C96.6 95 94 98 94 101.7C94 105.4 96.6 108.4 99.9 108.4C103.2 108.4 105.8 105.5 105.8 101.7ZM100.7 139.1C101.2 138.8 101.5 138.3 101.5 137.7C101.5 130.5 101.5 123.3 101.5 116.1C101.5 115.5 101.2 115 100.7 114.7C100.2 114.4 99.6 114.4 99.1 114.7C98.6 115 98.3 115.5 98.3 116.1C98.3 123.3 98.3 130.5 98.3 137.7C98.3 138.3 98.6 138.8 99.1 139.1C99.6 139.4 100.2 139.4 100.7 139.1ZM101 91.4C101 89.6 101 87.8 101 86C101 85.7 100.9 85.6 100.6 85.6C100.2 85.6 99.8 85.6 99.4 85.6C99.1 85.6 99 85.7 99 86C99 87.8 99 89.6 99 91.4C99.7 91.2 100.4 91.2 101 91.4ZM95.5 136.2C96.2 135.6 96.5 134.6 96.5 133.7V133.6C96.5 132.9 96.2 132.3 95.8 131.8C95.5 131.5 95.1 131.2 94.7 131C93.4 130.4 91.8 130.3 90.3 130.4C87.9 130.5 85.6 130.8 83.2 131.7C81.5 132.4 79.8 133.3 79.1 134.8C78.9 135.3 78.7 135.9 78.7 136.5C78.7 136.7 78.8 136.8 78.9 136.9C79 137 79.2 137 79.3 136.9C79.4 136.8 79.6 136.7 79.7 136.6C80.2 136.3 80.8 136.2 81.4 136.1C82.6 135.9 83.7 135.8 84.9 135.9C86.9 136 89.3 136.2 91.1 136.7C91.9 137 92.6 137.3 93.5 137.2C94.2 137 95 136.7 95.5 136.2ZM96.3 121.2C96.3 120.2 95.5 119.5 94.6 119.5C93.6 119.5 92.9 120.3 92.9 121.2C92.9 122.2 93.7 122.9 94.6 122.9C95.5 123 96.3 122.2 96.3 121.2ZM95 113.3C95 112.3 94.2 111.6 93.2 111.6C92.2 111.6 91.5 112.4 91.5 113.3C91.5 114.3 92.3 115.1 93.2 115.1C94.2 115 95 114.3 95 113.3ZM80.8 246.5C81.6 243.1 81.4 239.6 81.2 236.1C80.8 228.2 80.8 220.5 80.5 212.7C80 202.6 78.9 192.4 78.5 182.3C78.3 178.1 78.3 174 78.2 169.8C76.3 170.3 74.4 170.9 72.4 171.2C70.1 171.5 67.8 171.6 65.7 170.8C64.3 170.3 63.1 169.5 61.8 168.6C61.3 173.4 60.8 178.3 60.3 183.1C59.3 191.8 58.2 200.5 57.6 209.3C57 218.6 57 227.9 57.2 237.2C57.3 242.3 57.5 247.4 59.2 252.5C59.8 254.4 60.7 256.3 62.2 257.4C63.5 258.4 65.4 258.8 67.1 258.8C70.4 258.8 73.4 257.3 75.8 255.2C78.2 252.8 80 249.7 80.8 246.5ZM79.3 166.6C79.3 166.5 79.2 166.3 79.1 166.3C78.7 166.1 78.3 166 77.9 165.7C76.8 165 75.8 164 75.4 162.8C74.9 161.2 75.3 159.5 75.7 157.7C75.8 157.3 75.8 156.9 75.7 156.6C75.5 155.9 74.7 155.5 74.2 155C73.3 154.2 72.9 153 73.1 151.9C73.2 151.1 73.6 150.4 73.8 149.7C74.1 148.7 74.1 147.6 74.1 146.4C74.1 146 73.9 145.7 73.6 145.4C73.3 145.2 72.9 145 72.6 145.1C72 145.2 71.5 145.3 71 145.5C69.8 146 68.8 147.3 68 148.5C66.2 151.4 65.1 154.4 64 157.4C63.3 159.5 62.6 161.7 61.8 163.8C61.6 164.4 61.8 165.1 62.4 165.4C62.8 165.7 63.3 166 63.7 166.2C64.7 166.6 65.7 166.9 66.8 167C67.4 167 68.1 167 68.7 167C68.9 167 69.1 166.9 69.2 166.7C69.3 166.5 69.3 166.3 69.2 166.1C69.1 165.9 69 165.8 69 165.6C68.5 164.4 68.3 163.1 68.2 161.7C68.2 160.8 68.1 159.8 68.5 159C68.7 158.5 69.1 158.1 69.4 158.1C70.1 158 70.3 160.4 70.5 162C70.7 163.3 71 164.2 71.4 165.1C71.7 165.9 72.2 166.7 72.9 167.2C73.7 167.7 75 167.7 76 167.5C76.6 167.4 77.1 167.2 77.6 167.1C78 167 78.5 166.9 78.9 166.9C79.2 166.9 79.3 166.8 79.3 166.6ZM74.5 108.7C74.1 107.7 73.7 106.7 73 106C71.8 104.7 69.9 104.2 68.3 103.4C67 102.7 65.9 101.8 64.9 101C64.2 100.4 63.6 99.8 62.8 99.1C62.5 98.8 62.1 98.5 61.8 98.6C61.5 98.7 61.1 99.1 61.1 99.6C60.9 100.6 62 101.3 62.9 101.9C63.9 102.6 64.6 103.2 65.4 103.6C66.2 104.1 67.2 104.4 68.2 104.8C69.4 105.3 70.6 105.9 71.7 106.6C72.7 107.2 73.6 107.9 74.5 108.7ZM65.7 143.4C66 143.2 66.1 142.6 66 142.3C65.8 141.6 64.8 141.4 63.9 141.4C62.9 141.4 62 141.7 61.4 142.1C61.1 142.3 60.9 142.5 60.5 142.7C59.9 143 59 143 58.7 142.7C58.4 142.4 58.4 141.7 58.5 141.1C58.5 140.7 58.5 140.4 58.4 140.1C58 138.6 55.7 138 53.7 137.7C51.5 137.4 49.6 137.7 47.8 138.4C45.4 139.4 43.1 141.3 41.6 143.7C40.4 145.7 39.8 148 39.4 149.9C39 151.7 38.8 153.2 38.6 155.5C38.5 157.3 38.5 159.7 39 160.1C39.2 160.3 39.6 160.1 39.8 159.5C40.2 158.7 40.3 157.1 40.3 155.7C40.3 154.7 40.3 153.9 40.5 153C40.8 152.2 41.3 151.4 41.7 151.3C42.4 151.2 42.3 154 42.2 156.3C42.1 159.4 41.9 161.4 41.7 163.6C41.4 166.4 41 169.6 40.7 172.8C40.4 176.4 40.4 179.8 40.6 183.3C40.6 184.6 40.7 185.8 40.8 187.1C40.8 187.3 41 187.5 41.2 187.5C41.4 187.5 41.6 187.3 41.6 187.1C41.7 185.1 41.9 183.1 42 181C42.3 177.3 42.7 173.7 42.9 169.9C43.1 167.1 43.3 164.2 44.1 161.6C44.5 160.5 44.9 159.5 45.6 158.5C46.1 157.7 46.7 156.9 47.6 156.7C48.2 156.6 49 156.8 49.4 157.2C50.6 158.2 50 160.3 49.6 162.3C48.7 166.3 48.6 169.7 48.5 173C48.3 177.8 48.1 182.4 47.8 186.9C47.6 190 47.3 193 47.3 196.3C47.3 199.8 47.8 203.6 48.6 207.1C48.6 207.3 48.8 207.4 49 207.4C49.2 207.4 49.4 207.2 49.4 207C49.8 200.6 50.1 194.3 50.4 187.9C50.8 180.2 51.2 172.5 52.3 164.7C52.9 160.6 53.7 156.4 55.3 152.7C56.3 150.3 57.7 148.1 59.7 146C60.7 144.9 61.8 143.9 62.9 143.5C63.3 143.3 63.8 143.2 64.4 143.3C64.8 143.5 65.4 143.6 65.7 143.4ZM43.8 135.2C43.8 134.4 43.8 133.6 43.7 132.9C43.6 131.9 43.4 131 43.1 130.1C42.6 128.8 41.9 127.5 40.9 126.3C39.2 124.3 36.9 122.7 34.3 121.8C31.5 120.8 28.3 120.8 25.4 121.4C24.8 121.5 24.2 121.7 23.6 121.9C23.4 122 23.3 122.2 23.3 122.4C23.3 122.6 23.5 122.7 23.7 122.7C25.3 122.5 26.9 122.5 28.5 122.5C31.1 122.6 33.8 123.2 36 124.6C37.8 125.7 39.2 127.5 40.4 129.3C41.2 130.5 41.9 131.7 42.3 133C42.6 133.7 42.7 134.4 42.9 135.2C42.9 135.4 43.1 135.5 43.3 135.5C43.6 135.6 43.8 135.4 43.8 135.2Z" />
<path d="M142.7 52.8C143.1 56.9 143.1 60.3 142.4 63.8C142 65.9 141.3 67.9 140.1 69.7C139.2 71 138.1 72.1 136.8 72.7C135.7 73.2 134.5 73.4 133.1 73.4C132.2 73.4 131.1 73.3 130.6 73.8C130.2 74.2 130.1 75.1 130.2 75.9C130.3 76.5 130.6 76.9 130.9 77.4C131.5 78.8 131.6 80.5 131.1 81.9C130.4 83.7 128.5 84.8 126.8 85.6C124.9 86.5 123 87.1 120.5 86.8C118.1 86.5 115 85.4 114.3 84C114 83.3 114.1 82.6 114.3 81.8C114.7 80.3 115.5 78.7 116.1 77.1C116.7 75.5 117.1 73.8 117.2 72.1C117.2 71.8 117.3 71.5 117.3 71.2C117.6 67.5 117 63.6 115.9 60C115.3 58.1 114.6 56.3 113.9 54.7C113.5 53.9 113.1 53.2 112.8 52.4C111.7 49.4 112.2 45.7 113.5 42.3C114.1 40.6 115 38.9 115.2 37.2C115.5 35.2 115 33.1 114.8 31C114.7 29.3 114.7 27.6 115.5 26.1C116 25.1 116.8 24.2 117.7 23.6C118.5 23 119.4 22.7 120.4 22.6C121.6 22.4 122.8 22.5 124.1 22.7C125.6 23 127 23.7 127.9 24.9C128.1 25.1 128.2 25.4 128.3 25.7C128.9 27.1 128.9 29 128.5 30.6C128 32.6 126.8 34 125.4 35.1C124.3 35.9 123.1 36.5 121.7 37.4C121.3 37.6 120.9 37.9 120.8 38.2C120.5 38.9 122 39.7 123.2 40.2C123.9 40.5 124.4 40.7 124.6 41.2C124.7 41.5 124.7 41.8 124.6 42.1C124.4 42.6 123.9 43 123.3 43C122.6 43.1 121.8 42.7 121.4 43C121.1 43.2 121 43.8 121 44.3C121 45.1 121.4 45.9 122.2 46.2C123.3 46.5 125.1 46 125.5 46.7C125.9 47.1 125.5 48.1 125 48.5C124.7 48.7 124.4 48.7 124.1 48.7C122.5 48.8 121.1 48.9 119.5 48.5C118.8 48.3 118.1 48.1 117.6 48.5C117.1 48.9 116.8 49.9 117.1 50.4C117.4 51 118.3 51 119 51.1C120.2 51.2 121.1 51.2 122.2 51.2C122.7 51.2 123.2 51.2 123.5 50.9C123.7 50.7 123.8 50.5 124 50.4C124.5 50.2 125.7 50.6 125.9 51.3C125.9 51.4 125.9 51.4 125.9 51.5C126 52.1 125.4 52.9 124.7 53.2C124.2 53.4 123.8 53.4 123.2 53.3C122.8 53.2 122.3 53.1 122 53.4C121.6 53.7 121.6 54.5 121.8 54.9C122.1 55.6 123 55.7 123.8 55.6C124 55.6 124.1 55.6 124.3 55.5C124.8 55.4 125.3 55.2 125.6 55.3C125.9 55.4 126.1 55.8 126.1 56.1C126 56.6 125.5 57 124.9 57.2C124.3 57.4 123.7 57.4 123 57.5C122.6 57.6 122.1 57.8 122 58.2C121.8 58.6 122.1 59.2 122.4 59.5C123 59.9 123.8 59.4 124.5 59.7C125 59.9 125.4 60.4 125.4 60.9C125.4 61.5 124.7 61.9 123.9 62C123.2 62.1 122.5 61.8 122.3 62.2C122.1 62.5 122.2 63.1 122.5 63.4C123 63.8 123.9 63.6 124.3 63.9C124.6 64.2 124.6 64.8 124.5 65.4C124.5 65.8 124.5 66.2 124.3 66.5C124.1 66.9 123.5 67.2 123.2 67.6C122.9 68 122.8 68.6 122.8 69.1C122.8 70.3 123.1 71.3 124 72.2C124.4 72.5 124.8 72.9 125.2 72.8C125.8 72.7 126 71.5 126.6 71C127.2 70.4 128.1 70.7 129.1 70.6C129.9 70.6 130.8 70.3 131 69.8C131.3 69.1 130.2 68 129.1 67.6C128.2 67.3 127.4 67.6 126.9 67.2C126.4 66.8 126.3 65.6 126.6 64.8C126.9 63.8 127.9 63.3 128.8 63C128.8 63 128.8 63 128.9 63C129.6 62.8 130.4 62.7 131.1 62.4C131.5 62.3 131.9 62.1 132.1 61.6C132.5 60.8 132.3 59.2 131.8 59.1C131.4 59 130.7 60.2 129.9 60.4C129.4 60.5 128.8 60.2 128.5 59.8C128.1 59.1 128.6 58 129.2 57.5C129.5 57.3 129.8 57.2 130.2 57.1C130.8 57 131.7 57.1 131.8 56.9C131.9 56.6 131.2 55.9 130.4 55.7C129.3 55.5 128.3 56.4 127.9 55.9C127.7 55.7 127.7 55.1 127.9 54.7C128.3 53.9 129.3 53.7 130.2 53.6C131.5 53.5 132.4 53.4 133.8 53.5C134.7 53.5 135.8 53.6 136.2 53C136.5 52.5 136.3 51.6 135.9 51.2C135.5 50.9 135 50.9 134.5 51C133.3 51.1 132.6 51.2 131.2 51.4C129.6 51.6 127.2 52 127.2 51.3C127.2 51 127.8 50.4 128.3 50C129 49.4 129.5 49.1 130.1 48.6C130.6 48.2 131.1 47.6 130.9 47.1C130.8 46.9 130.6 46.6 130.4 46.6C130 46.5 129.6 46.7 129.2 46.6C128 46.5 126.6 44.5 127 44.2C127.3 43.9 128.6 44.6 129.5 44.4C130.1 44.3 130.5 43.8 130.7 43.3C131 42.4 130 41.5 129 40.6C128 39.7 126.9 39 126.9 38.1C126.9 37.3 128 36.5 128.9 35.7C130.2 34.6 131.2 33.7 131.6 32.4C132.1 30.8 131.8 28.8 131 27.1C130.7 26.5 130.4 26 130.1 25.5C129.5 24.6 128.9 23.9 128.2 23.1C128.1 23 128.1 22.7 128.2 22.6C128.3 22.5 128.5 22.4 128.7 22.5C130.6 23.4 132.5 24.3 134.3 25.5C136.2 26.8 138 28.4 139.1 30.4C140.4 32.8 140.9 35.9 140.1 38.4C139.8 39.3 139.3 40.1 138.9 41.1C138.5 42 138.3 43 138.6 43.8C138.9 44.5 139.7 45.1 140.4 45.7C141.9 47.2 142.4 50.1 142.7 52.8Z" />
<path d="M121.1 190.5C121.1 196.5 121 202.5 120.9 208.5C120.6 215.6 120.3 222.7 120.1 229.6C119.9 234.5 119.7 239.4 118.8 244.6C118.3 247.7 117.6 250.9 115.2 252.4C113.6 253.4 111.4 253.7 109.6 253.1C108.1 252.5 106.9 251.2 106.1 249.8C104.7 247.1 104.8 243.8 104.8 240.6C104.9 234.6 104.9 228.7 105.1 222.7C105.2 219.6 105.4 216.6 105.6 213.5C106.1 206.8 106.7 200.1 107.2 193.7C107.6 189.4 107.9 185.3 108.4 180.6C108.8 177.2 109.3 173.5 111.8 170.7C113.1 169.3 114.8 168.1 116.5 168.5C117.6 168.7 118.6 169.6 119.3 170.7C120.1 172 120.4 173.4 120.5 174.8C120.5 175.3 120.6 175.8 120.6 176.2C120.9 181.1 121 185.8 121.1 190.5Z" />
<path d="M120.1 20.4C120.2 20.4 120.2 20.5 120.2 20.6C120.2 20.7 120.1 20.8 120 20.8C118.8 20.9 117.6 20.9 116.6 21.3C115.1 21.8 113.8 22.8 113 24.1C112.4 25 112.1 26.1 111.9 27.2C111.5 29.3 111.5 31.3 111.8 33.5C112.1 35.5 112.5 37.4 112 39.2C111.5 40.7 110.3 42 110 43.5C109.8 44.3 109.9 45.1 110 46C110 46.2 109.9 46.4 109.8 46.4C109.6 46.5 109.4 46.4 109.3 46.3C108.8 45.7 108.3 45.1 107.7 44.5C106.5 43.3 104.9 42.2 103.4 41.3C101.1 39.9 98.9 38.9 96.6 38.2C95.3 37.8 94 37.6 92.2 37.5C91 37.4 89.5 37.5 89.4 37C89.4 36.9 89.4 36.8 89.4 36.8C89.6 36.5 90.5 37 91.2 36.5C91.6 36.2 91.9 35.5 91.7 35.1C91.5 34.7 91 34.6 90.5 34.5C89.6 34.4 88.9 34.7 88.2 34.2C87.9 33.9 87.5 33.5 87.6 33.3C87.7 33 88.2 33 88.6 32.9C89.8 32.7 90.5 32.9 91.7 33.1C93 33.4 94.8 33.8 95 32.9C95.1 32.6 95 32 94.7 31.7C94.4 31.2 93.8 31.1 93.3 30.9C91.9 30.6 90.7 30.8 89.1 30.7C88.4 30.6 87.5 30.5 87.4 29.9C87.3 29.5 87.6 28.7 88 28.5C88.4 28.3 89 28.7 89.6 28.6C90.1 28.5 90.6 27.9 90.6 27.3C90.6 26.7 90.3 26.2 89.9 25.8C88.9 25 87.6 25.7 85.7 25.6C84.8 25.6 83.7 25.3 83.8 24.9C83.8 24.6 84.6 24.2 85.2 24.1C86.2 23.8 86.9 24 87.7 24.1C88.1 24.1 88.5 24.1 89 23.9C89.7 23.6 90.4 23 90.1 22.5C89.9 22.2 89.4 22 88.9 21.9C88.1 21.7 87.6 21.9 86.6 21.9C85.8 21.8 84.7 21.6 84.7 21.3C84.6 21.1 85.5 20.9 86.2 20.8C87.4 20.6 88.3 20.4 89.6 20.3C90.4 20.3 91.4 20.3 91.6 19.8C91.8 19.4 91.5 18.8 91.1 18.4C90.6 18 89.8 18.1 89.2 18.1C88.2 18.2 87.4 18.3 86.4 18C85.8 17.8 85.1 17.5 85 16.9C85 16.7 85 16.5 85 16.3C85.2 15.9 86 16.2 86.7 16.3C87.3 16.4 88 16.4 88.1 16C88.2 15.7 88.1 15.3 87.8 15C87.4 14.4 86.5 14.4 85.7 14.5C85.4 14.5 85.1 14.6 84.8 14.5C84.5 14.3 84.4 13.8 84.5 13.4C84.5 13.3 84.6 13.2 84.7 13.1C85.3 12.5 86.3 12.8 87.2 12.9C88.1 13 88.9 13 89.7 12.9C89.9 12.9 90.2 12.8 90.3 12.7C90.7 12.3 90.6 11.3 90.1 11C89.9 10.9 89.5 10.9 89.2 11C88 11.2 86.8 11.5 85.5 11.7C84.7 11.8 83.8 11.9 83.1 11.4C82.8 11.2 82.6 10.9 82.5 10.6C82.4 10.4 82.4 10.2 82.5 10C82.6 9.80002 82.9 9.60003 83.3 9.50002C83.9 9.40002 84.4 9.80003 84.9 9.70003C85.5 9.60003 86.1 8.90002 86 8.40002C85.9 8.10002 85.5 7.80002 85.1 7.60003C84.3 7.30002 83.7 7.50003 82.9 7.70003C82.2 7.80003 81.3 7.90002 81 7.30002C80.9 7.10002 80.9 6.90002 80.9 6.80002C81 6.20003 82.1 6.50002 82.9 6.50002C83.7 6.50002 84.2 6.40002 84.7 5.90002C85.1 5.50002 85.5 4.90002 85.5 4.20002C85.5 3.40002 85 2.60002 84.7 2.00002C84.6 1.80002 84.5 1.70002 84.4 1.50002C84.3 1.30002 84.3 1.10002 84.4 0.900024C84.5 0.700024 84.7 0.600025 84.9 0.600025C85.6 0.600025 86.2 0.500025 86.9 0.500025C88.8 0.400025 90.7 0.400024 92.7 0.400024C95.7 0.500024 98.7 0.900025 101.5 2.00002C104.8 3.30002 107.7 5.60002 110.6 7.90002C113 9.80002 115.4 11.6 116.5 14.4C117 15.7 117.2 17.3 118.1 18.3C118.3 19.5 119.2 20 120.1 20.4Z" />
<path d="M114.2 61.9C115 64.7 115.6 67.9 115.4 70.8C115.4 71.2 115.3 71.6 115.3 72C114.9 74.5 113.9 76.9 113 79.3C112.6 80.3 112.2 81.4 112.1 82.5C111.9 84.3 112.3 86.2 112.1 88.1C111.9 89.7 111.3 91.3 110.6 92.9C110.3 93.5 110 94.2 109.8 94.8C109.6 95.1 109.3 95.3 108.9 95.2C108.7 95.2 108.6 95.1 108.4 94.9C108.2 94.7 108.2 94.6 108.2 94.4C108.2 93.4 108.1 92.3 107.8 91.3C107.4 89.8 106.6 88.3 106.5 86.8C106.4 85.5 106.8 84.2 107.2 83C108 80.3 109 77.8 110.1 75.4C110.6 74.2 111.3 73.1 112 71.8C112.6 70.8 113.3 69.8 112.9 68.8C112.8 68.5 112.6 68.3 112.4 68.2C111.8 67.8 110.9 68.7 110.3 69.5C110.3 69.5 110.3 69.5 110.2 69.6C109.5 70.5 109.1 71.1 108 71.3C107.1 71.5 105.8 71.6 105.8 71C105.8 70.6 106.3 70 106.2 69.6C106.1 69.1 105.2 69 104.5 69.1C103.9 69.3 103.6 69.7 103.2 69.9C102.5 70.3 101.5 70.3 100.6 70.1L100.9 68.2C101.4 68.3 102 68.3 102.5 68.2C103.4 68 104.3 67.6 105 67.2C105.3 67 105.6 66.8 105.9 66.5C106.1 66.3 106.2 66.1 106.3 65.9C106.4 65.5 106 65.2 105.7 64.8C105.3 64.5 105 64.2 104.6 64.2C104.4 64.2 104.2 64.4 104.1 64.5C103.8 64.9 103.8 65.4 103.6 65.8C103.3 66.3 102.7 66.5 102 66.6C101.3 66.7 100.6 66.5 100.1 66.1C99.7 65.8 99.4 65.3 99.3 64.7C99.2 64.1 99.1 63.4 98.8 63.3C98.6 63.2 98.4 63.4 98.0999 63.6L97 62.2C97.5 62.2 97.9 62.1 98.3 61.9C98.9 61.6 99.6 61 100.4 60.6C101.9 59.9 103.8 59.8 105.2 60C106.4 60.2 107.3 60.5 108.7 61.3C109.7 61.9 111 62.8 111.2 62.2C111.3 62 111.2 61.5 111.1 61.1C110.8 60.1 110 59.6 109.2 59.1C108.4 58.6 107.6 58.3 106.8 58.1C105.5 57.8 104 57.7 102.6 57.9L102.3 55.9C102.6 55.8 102.9 55.8 103.2 55.7C103.6 55.5 104.1 55.4 104.3 55.1C104.7 54.5 103.5 53.4 102.5 52.7C101.8 52.2 101.2 52 100.7 51.8C99.9999 51.6 99.3 51.3 98.3 51.2C98 51.2 97.7999 51.2 97.5999 51.1C96.9999 50.8 97.8 49.8 98.4 49.1C99.2 48.3 99.7 48 100.1 47.3C100.3 46.9 100.4 46.3 100.4 45.8C100.4 44.5 99.4999 43.9 98.1999 43.2C97.2999 42.7 96.1999 42.3 95.1999 42C94.0999 41.7 93.1999 41.6 92.1999 41.5C91.4999 41.4 90.8 41.4 90 41.3C89.3 41.3 88.6 41.3 88.4 41.2C87.5 41.1 90.9999 40.5 93.5999 40.6C96.7999 40.6 98.7999 41.5 100.6 42.3C102.7 43.3 104.5 44.2 106 45.7C108.6 48.1 110.4 52 111.9 55.6C112.7 57.6 113.5 59.6 114.2 61.9ZM109.1 65.7C109.4 65.5 109.6 65.2 109.6 65C109.6 64.7 109.2 64.4 108.8 64.2C108.3 63.8 107.8 63.6 107.3 63.3C106.9 63 106.5 62.8 105.9 62.6C105.4 62.4 104.7 62.3 104.5 62.7C104.4 62.9 104.4 63.2 104.5 63.4C104.7 63.7 105 63.8 105.3 64C105.7 64.3 106 64.6 106.4 65C106.5 65.1 106.5 65.1 106.6 65.2C106.9 65.5 107.3 65.8 107.8 65.9C108.2 66 108.7 66 109.1 65.7ZM102.6 64.7C102.6 64.1 102.1 63.6 101.5 63.6C100.9 63.6 100.4 64.1 100.4 64.7C100.4 65.3 100.9 65.8 101.5 65.8C102.1 65.8 102.6 65.3 102.6 64.7Z" />
<path d="M102.3 56L102.6 58C102.5 58 102.3 58 102.2 58.1C101.1 58.3 100 58.7 99 59.1C98.6 59.3 98.2 59.4 97.7 59.6C97 59.8 96.2 59.9 95.9 60.6C95.6 61.1 95.6 61.9 96.1 62.2C96.3 62.3 96.6 62.4 96.8 62.4C96.9 62.4 97 62.4 97 62.4L98.1 63.8C98 63.9 98 63.9 97.9 64C97.7 64.2 97.5 64.5 97.2 64.8C96.8 65.3 96.4 65.8 96.5 66.2C96.6 66.5 97 66.7 97.4 67C98.1 67.4 98.8 67.8 99.5 68.1C99.9 68.3 100.3 68.4 100.8 68.4L100.5 70.3C100.4 70.3 100.2 70.2 100.1 70.2C98.6 69.8 97.3 69 96 67.9C95.5 67.5 95.1 67.1 94.7 67C94.2 66.8 93.7 67 93.4 67.3C92.6 68.2 92.7 70.4 93 72.3C93.4 74.9 94.2 77 95.3 79C96 80.2 96.9 81.4 97.3 82.8C97.5 83.5 97.5 84.3 97.4 85.1C97.3 85.8 97.1 86.5 96.7 87.1C96.3 87.7 95.9 88.2 95.3 88.4C94.6 88.7 93.7 88.5 92.8 88.2C92.3 88 91.8 87.8 91.4 87.9C91.1 88 90.8 88.2 90.4 88.2C90 88.2 89 88.1 89 88C88.9 87.8 90.1 87.5 90.6 87.1C90.9 86.9 91 86.6 91.2 86.4C91.6 86.1 92.7 86.5 93.7 86.7C94.3 86.8 94.9 86.8 95.3 86.6C95.8 86.3 96.2 85.7 96.4 85.1C96.6 84.5 96.6 83.9 96.3 83C96.1 82.3 95.9 81.5 95.4 81.5C95.2 81.5 94.9 81.8 94.7 82.1C94.5 82.6 94.6 83.1 94.6 83.6C94.6 84.2 94.3 84.7 93.7 85C93.3 85.3 92.7 85.4 92.5 85.3C92.1 85.1 92.6 84.1 92.9 83.4C93.1 83.1 93.3 82.8 93.3 82.5C93.4 81.9 92.8 81.3 92.4 80.6C91.2 79.1 90.3 77.7 89.8 76.1C89.1 74 89.1 71.6 89.3 69.2C89.4 66.9 89.7 64.8 90.7 62.8C91.6 60.9 93 59.1 94.9 58C96.4 57 98.2 56.5 99.9 56.2C100.6 56.2 101.4 56.2 102.3 56Z" />
<path d="M99.9 104.8C101.391 104.8 102.6 103.412 102.6 101.7C102.6 99.988 101.391 98.6 99.9 98.6C98.4088 98.6 97.2 99.988 97.2 101.7C97.2 103.412 98.4088 104.8 99.9 104.8Z" />
<path d="M91.3 93C92 93.1 92.6 93.1 93.8 93C91.9 94.9 90.6 97.3 90.2 99.9C90.2 100.2 90 100.4 89.8 100.5C89.6 100.6 89.3 100.6 89.1 100.6C88.6 100.4 88.1 100.2 87.6 100.1C86.5 99.9 85.5 99.9 84.5 99.8C83.3 99.6 82.1 99 80.5 98C78.8 96.9 76.6 95.4 76.9 94.6C77.1 94.1 78.2 93.9 79.1 93.7C80.3 93.5 81.4 93.4 82.4 93.4C83.8 93.3 85.2 93.3 86.8 93.6C87.5 93.7 88.1 93.9 88.6 93.6C88.9 93.4 89.1 93 89.5 92.9C90.1 92.7 90.7 92.9 91.3 93Z" />
<path d="M91.5 106.5C91.6 106.6 91.5 106.7 91.5 106.8C91.5 106.9 91.4 107 91.2 107C90.8 107.1 90.4 107.3 90.1 107.4C89.5 107.7 88.9 108.2 88.4 108.7C88 109.1 87.8 109.5 87.5 110.1C87.4 110.4 87.3 110.7 87.1 110.7C86.8 110.8 86.5 110.4 86.3 110C86 109.3 86.4 108.6 86.8 108C87.3 107.3 87.7 106.8 88.3 106.3C88.5 106.1 88.7 106 88.9 105.8C89 105.7 89.1 105.6 89.1 105.4C89 104.6 89 103.8 88.9 103.1C88.9 102.9 88.7 102.7 88.5 102.7C87.2 102.7 85.9 102.8 84.6 102.9C84.3 102.9 84.1 102.6 84 102.3C84 102 84.2 101.7 84.5 101.7C85.5 101.7 86.5 101.7 87.5 101.6C88.4 101.6 89.3 101.5 90.2 101.5C90.3 101.5 90.4 101.5 90.5 101.6C90.6 101.7 90.6 101.8 90.6 101.9C90.6 103.6 90.9 105.1 91.5 106.5Z" />
<path d="M86.3 86.5001C86.7 86.9001 87.1 87.4001 86.9 87.7001C86.8 88.0001 85.9 88.0001 85.3 87.8001C84.7 87.6001 84.3 87.2001 83.9 87.1001C83.5 87.0001 83.1 87.1001 82.7 86.9001C82.2 86.7001 81.8 86.2001 81.8 85.7001C81.8 85.3001 82 84.8001 82.3 84.6001C82.7 84.4001 83.2 84.6001 83.7 84.8001C83.8 84.9001 83.9 84.9001 84 85.0001C84.3 85.2001 84.6 85.3001 84.8 85.5001C85.3 85.7001 85.8 86.0001 86.3 86.5001Z" />
<path d="M85.7 33.8C86.1 34.1 86.2 34.8 86 35.3C85.7 35.9 84.7 36.1 83.8 36.3C82.7 36.6 81.7 37 80.7 37.5C78.6 38.5 76.8 39.8 75.2 41.2C73 43.2 71.2 45.6 69.4 48.1C67.1 51.3 64.8 54.6 62.4 57.7C61.7 58.5 61.1 59.3 60.4 60.1L58.7 59.2H58.8C59.1 59 59.5 57.4 59.7 56.1C60 54.3 60 53 60.2 51.6C60.5 49.6 61.4 47.3 61.3 45.1C61.2 42.6 59.9 40 60.3 37.7C60.5 36.7 61 35.8 61.4 34.9C62 33.5 62.6 32 62.3 30.6C62.1 29.5 61.3 28.5 60.8 27.4C60.1 25.9 59.7 24 58.6 23.1C58 22.6 57.2 22.4 56.4 22.3C56.1 22.3 55.9 22.1 55.8 21.9C55.7 21.7 55.7 21.4 55.8 21.2C56.3 20 56.9 18.8 57.4 17.7C58.8 14.9 60.2 12.3 62.2 9.90002C64.3 7.30002 67 5.00002 70.1 3.70002C72.2 2.80002 74.5 2.20002 77.1 1.90002C78.2 1.80002 79.5 1.60002 80.5 1.90002C81.9 2.20002 83.1 3.10002 82.9 4.20002C82.8 4.70002 82.4 5.30002 81.9 5.80002C81.2 6.40002 80.2 6.60002 79.3 6.80002C78.1 7.00002 77 6.90002 75.5 7.30002C74.4 7.60002 73.2 8.00002 73.1 8.30002C72.9 8.80002 75.5 8.90002 77.5 8.80002C78.2 8.80002 78.8 8.70002 79 9.10002C79.1 9.40002 78.7 10.2 78.8 10.5C78.9 11 80.5 10 81.3 10.4C81.6 10.5 81.7 10.8 81.8 11.1C81.9 11.4 81.8 11.7 81.7 11.9C81.6 12.1 81.3 12.2 81.1 12.3C80 12.6 78.9 12.6 77.3 13C75.3 13.6 72.5 14.9 73.1 15.3C73.4 15.5 74.4 15.5 75.2 15.4C76.8 15.2 77.6 14.7 79.2 14.4C80.5 14.1 82.2 13.9 82.3 14.6C82.3 14.9 82.1 15.3 81.7 15.6C81 16.2 79.9 16.3 79 16.5C78.1 16.8 77.3 17.2 77.3 17.4C77.2 17.8 79.4 17.6 81.3 17.9C82.2 18 83 18.3 83.1 18.9C83.2 19.3 83 19.7 82.7 20.1C81.9 21.1 80.6 20.9 79 20.9C77.2 21 75.1 21.5 74.9 22C74.6 22.6 78.2 23.1 80.9 23.1C81.6 23.1 82.3 23 82.6 23.4C82.9 23.8 82.8 24.7 82.4 25C82 25.4 81.2 25.2 80.5 25.5C80.1 25.7 79.8 26 79.7 26.3C79.5 26.8 79.8 27.3 80.3 27.5C81.4 28 83.4 27.8 84.8 27.9C85 27.9 85.2 27.9 85.3 28C85.8 28.2 85.8 29 85.5 29.5C85.1 30 84.4 30 83.5 30.1C82.9 30.1 82.3 30.2 81.8 30.3C81.4 30.3 81.1 30.3 80.7 30.4C79.6 30.5 78.3 30.6 77.4 31.4C77.1 31.6 77 31.9 77 32.1C77.1 32.6 78.7 32.6 79.7 32.4C80.3 32.3 80.6 32.1 80.9 31.9C81.9 31.5 83.1 31.4 84.5 31.4C85.1 31.4 85.6 31.4 86 31.7C86.3 32 86.4 32.7 86.2 33C85.8 33.6 84.6 33.5 83.7 33.5C83.4 33.5 83.1 33.5 82.9 33.7C82.6 33.9 82.2 34.2 82.4 34.3C82.5 34.4 82.7 34.5 82.9 34.5C83.6 34.6 84.1 34.5 84.7 34.3C84.9 33.7 85.4 33.6 85.7 33.8Z" />
<path d="M80.7 62.6C80.9 63.4 80.9 64.5 80.4 64.6C80.1 64.6 79.7 64.3 79.6 63.9C79.4 63.6 79.5 63.2 79.3 63C79.1 62.8 78.8 62.9 78.4 62.9C77.8 62.9 77.2 62.8 77.1 63.1C77 63.3 77.1 63.7 77 63.9C77 64.3 76.8 64.5 76.5 64.8C76.1 65.1 75.5 65.3 74.9 65.3C74 65.3 73 64.9 72.7 64.1C72.5 63.5 72.8 62.6 72.4 62.3C72.1 62.1 71.6 62.3 71.3 62.5C71.2 62.6 71.1 62.7 71 62.8C70.4 63.2 68.8 62.9 68.9 63.2C68.9 63.4 69.3 63.6 69.5 63.8C70 64.3 70.3 64.7 70.7 65.2C71.1 65.7 71.7 66.1 72.4 66.4C73.2 66.8 74 66.9 74.8 66.9C75.5 66.9 76.3 66.8 77 66.6C77.5 66.5 78 66.4 78.5 66.4C78.8 66.4 79.1 66.5 79.3 66.6C79.4 66.6 79.5 66.8 79.5 66.9C79.5 67 79.4 67.1 79.3 67.2C79.2 67.2 79.1 67.3 79 67.3C78.5 67.4 78 67.5 77.6 67.6C77.1 67.7 76.6 67.9 76.1 68C74.5 68.4 72.6 68.2 71.1 67.4C70.1 66.9 69.3 66.1 68.7 65.2C68.1 64.3 67.7 63.3 67 62.8C66.7 62.6 66.2 62.4 65.8 62.3C65.7 62.3 65.6 62.2 65.6 62C65.6 61.9 65.6 61.7 65.8 61.7C66.5 61.4 67.2 61.1 67.9 60.8C68.7 60.5 69.5 60.2 70.2 60.1C70.9 60 71.5 60 72.3 60.1C73 60.1 73.9 60.2 74 59.7C74.1 59.5 74 59.2 73.9 59C73.7 58.5 73.3 58.3 72.8 58.1C72.1 57.8 71.3 57.8 70.7 58C70.4 58.1 70.1 58.3 69.9 58.4C69.2 58.8 68.3 59.1 67.6 59.3C66.7 59.6 65.9 59.7 64.6 59.9C63.7 60 62.6 60.2 62.6 59.7C62.6 59.5 62.7 59.3 62.8 59.2C63.2 58.8 63.9 58.8 64.5 58.7C65.3 58.6 66 58.2 66.8 57.9C67.7 57.5 68.7 57.1 69.7 56.7C70.6 56.4 71.5 56.1 72.4 56.1C73.2 56.1 74.1 56.3 74.9 56.5C76 56.8 77.1 57.2 78.2 57.4C79 57.6 79.9 57.8 80.4 58.5C80.6 58.9 80.8 59.4 80.5 59.7C80.2 59.9 79.5 59.8 79.5 60.2C79.5 60.3 79.5 60.5 79.6 60.6C79.7 60.8 80 60.9 80.2 61C80.4 61.6 80.6 62 80.7 62.6ZM76.1 62.9C76.1 62.2 75.5 61.7 74.9 61.7C74.2 61.7 73.7 62.3 73.7 62.9C73.7 63.6 74.3 64.1 74.9 64.1C75.5 64.2 76.1 63.6 76.1 62.9Z" />
<path d="M77.5 190.7C78.2 196.5 78.3 202.5 78.2 208.4C78.2 215.7 78.1 223 78 230.2C77.9 232.4 77.9 234.6 77.9 236.8C77.9 239.8 78.1 242.8 77.1 245.5C76.3 247.6 74.8 249.4 72.8 250.9C71.1 252.2 69 253.1 67.1 252.7C65.3 252.4 63.6 250.8 62.6 249.1C61.3 246.9 60.9 244.5 60.7 242.1C60.3 238.1 60.2 234.1 60.3 230.2C60.3 225.2 60.5 220.2 60.8 215.1C60.9 213.8 61 212.4 61.1 211.1C61.5 206.5 61.9 201.9 62.5 197.4C63.2 191.9 63.9 186.7 64.6 180.6C64.9 178.4 65.1 176.1 66.5 174.8C67.6 173.9 69.3 173.6 70.9 173.8C72.7 174.1 74.3 175.1 75.2 176.5C76.1 178 76.3 179.9 76.4 181.7C76.6 184.8 77.2 187.7 77.5 190.7Z" />
<path d="M58.7 59.2L60.4 60.1C59.7 60.9 59 61.6 58.3 62.3C58.7 63.3 59 64.4 59.3 65.4C59.8 67.5 60 69.7 60.1 71.8C60.4 76.6 60.8 81.4 61.2 86.1C59.4 85.5 57.7 84.8 56.2 85.4C55.4 85.7 54.6 86.5 53.8 87C52.5 87.7 50.9 87.7 49.5 87.4C47.2 86.9 45.1 85.5 43.9 83.7C43 82.3 42.7 80.5 42.3 78.7C41.6 75.6 40.8 72.3 42.8 69.6C43.3 68.8 44.1 68.2 44 67.5C44 66.9 43.4 66.4 42.9 65.8C42.1 65 41.6 64.2 41 63.4C39.9 61.9 38.7 60.3 37.9 58.6C37 56.8 36.6 54.9 36.9 52.6C37 51.8 37.2 51 36.9 50.5C36.6 50 35.7 49.8 35 49.4C34.1 48.9 33.5 48.1 33.1 47.2C32.3 45.3 32.5 43.1 33 41.1C33.5 38.6 34.4 36.3 35.3 34C36.3 31.5 37.5 29 39.3 26.9C40.9 25 43 23.3 45.4 22.6C46.8 22.2 48.3 22.1 49.8 22.1C51.4 22.1 52.9 22.4 54.5 22.7C55.5 22.9 56.6 23.3 57.4 23.9C58.4 24.7 59.1 26.1 59.4 27.4C59.8 29.1 59.9 30.8 59.6 32.5C59.4 33.8 58.9 35.1 58.8 36.5C58.6 37.7 58.7 38.9 58.9 40.2C59.2 42.3 59.7 44.4 59.7 46.2C59.8 48.4 59.1 50.2 58.7 53.6C58.5 56 58.3 59.2 58.7 59.2ZM53.8 54.4C54.3 54 54.4 52.7 53.9 52.2C53.6 51.8 53.1 51.7 52.6 51.7C51.7 51.7 51.1 51.8 50 51.9C48.7 52 46.9 52.2 47.1 51.5C47.2 51.3 47.4 51.1 47.6 50.9C48.3 50.3 48.9 50.2 49.9 50.2C50.6 50.2 51.4 50.3 51.6 49.8C51.8 49.5 51.6 49 51.3 48.6C50.7 47.9 49.5 48.3 48.2 48.3C47.5 48.3 46.8 48.2 46.5 47.9C46.2 47.6 46.2 47 46.5 46.6C46.9 46.1 47.6 45.8 48.2 45.7C49.2 45.5 49.9 45.6 50.9 45.6C51.3 45.6 51.9 45.6 52.1 45.3C52.3 45.1 52.3 44.7 52.1 44.4C51.8 44.1 51.2 44.2 50.7 44.2C49.9 44.3 49.4 44.2 48.8 44.2C48.3 44.2 47.8 44.2 47.4 44.2C47 44.2 46.5 44.1 46.2 43.9C46 43.8 45.9 43.7 45.8 43.6C45.4 43.2 45.1 42.5 45.2 41.9C45.3 41.3 45.6 40.8 46.1 40.5C46.6 40.1 47.4 39.9 47.6 39.3C47.7 39 47.7 38.5 47.5 38.3C47.2 38 46.7 38.1 46.2 38C45.3 37.8 44.7 37 44.5 36.3C44.3 35.7 44.4 35.2 44.7 34.7C45.1 34.1 45.9 33.6 46.7 33.4C47.4 33.2 48.1 33.2 48.9 32.9C49.7 32.5 50.7 31.7 50.7 31.5C50.7 31.2 48.9 31.7 47.7 32.1C46.7 32.5 46.1 32.8 45.3 32.9C44.8 33 44.2 33.1 43.9 32.8C43.4 32.5 43.4 31.5 43.8 30.7C44.3 29.7 45.6 28.9 45.2 28.4C45 28.2 44.7 28.1 44.3 28.1C43.4 28.1 42.8 29 42.2 29.8C41.2 31.3 40.4 32.5 39.5 33.7C38.8 34.6 38.1 35.5 37.9 37.2C37.8 38.2 37.8 39.4 38.1 39.6C38.3 39.8 38.8 38.8 39.3 38C39.7 37.3 40.2 36.7 40.7 36.2C41.2 35.7 41.7 35.3 42.1 35.3C42.7 35.3 43.1 36.4 43.3 37.3C43.5 38.4 43.2 39.2 42.7 40.3C41.9 41.8 40.6 43.9 41.2 44.5C41.6 44.9 42.8 44.7 44.2 44.5C44.6 44.5 45 44.4 45.4 44.4C46 44.4 46.4 44.5 46.4 44.7C46.4 45 45.9 45.4 45.5 45.8C44.3 46.9 43.6 48.1 43.1 49.4C42.8 50.2 42.6 51.2 43.1 51.3C43.4 51.4 44 51.2 44.6 51C45.3 50.8 46 50.8 46.4 51.3C46.6 51.5 46.7 51.8 46.7 52C46.6 52.4 46 52.4 45.5 52.5C44.4 52.7 43.6 53 43 54C42.5 54.9 42.1 56.2 42.8 56.6C43.1 56.8 43.6 56.7 43.9 56.6C44.3 56.4 44.4 56.2 44.7 55.8C45.2 55.2 45.8 54.5 46.5 54.1C47.2 53.7 48 53.5 48.8 53.4C49.9 53.3 51 53.4 52.1 53.9C52.5 54.4 53.3 54.9 53.8 54.4Z" />
<path d="M40 65.2C40.4 65.9 40.7 66.8 40.6 67.5C40.5 68.3 39.9 69.1001 39.6 69.9001C38.9 71.6001 39.3 73.5001 39.7 75.3001C39.9 76.1001 40.1 76.9 40.3 77.7C38.3 76.6 36.3 75.5001 34.6 73.8001C32.7 72.0001 31.2 69.5001 30.8 66.9001C30.4 64.2001 31.3 61.4001 32.4 58.8001C33.4 56.5001 34.5 54.4 35.7 52.3C35.7 54.8 35.8 57.3 36.5 59.6C36.8 60.7 37.3 61.8 38 62.6C38.6 63.6 39.5 64.3 40 65.2Z" />
</svg>
