<svg width="356" height="171" viewBox="0 0 356 171" fill="currentColor" xmlns="http://www.w3.org/2000/svg">
<path d="M355.2 56.5C355.2 64.4 355.2 72.3 355.2 80.3C339.6 80.3 324 80.3 308.4 80.3C299.9 71.5 291.4 62.7 282.9 53.9C282.9 62.7 282.9 71.5 282.9 80.3C263.5 80.3 244.1 80.3 224.8 80.3C223.1 75.5 221.4 70.7 219.7 65.9C211.8 65.9 203.9 65.9 195.9 65.9C194.2 70.7 192.6 75.5 190.9 80.3C181.3 80.3 171.7 80.3 162.2 80.3C171 53.6 179.8 26.9 188.6 0.200043C201.9 0.200043 215.1 0.200043 228.4 0.200043C236.9 25.7 245.4 51.2 254 76.7C254 51.2 254 25.7 254 0.200043C271.4 0.200043 288.8 0.200043 306.2 0.200043C309.7 0.700043 313.1 1.20002 316.4 2.40002C319.3 3.50002 322.1 5.10004 324.4 7.10004C326.4 8.90004 328.2 11 329.5 13.3C331.1 16.2 331.9 19.5 332.2 22.9C332.5 26.1 332.5 29.3 331.6 32.3C330.6 35.8 328.5 39.1 325.9 41.6C324.2 43.1 322.3 44.4 320.3 45.4C318.2 46.4 316.1 47.2 313.9 47.9C312.6 48.3 311.4 48.7 310.1 49C312.1 51.6 314.1 54.1 316.1 56.7C329.1 56.5 342.1 56.5 355.2 56.5ZM308.3 30.9C308.7 29.5 308.7 28 308.6 26.5C308.4 24.9 308.1 23.3 307.1 22.2C306.6 21.6 305.9 21.1 305.2 20.8C304.5 20.5 303.8 20.3 303.2 20.1C296.5 20.1 289.7 20.1 283 20.1C283 25 283 29.9 283 34.9C289.8 34.9 296.5 34.9 303.3 34.9C303.9 34.8 304.6 34.8 305.2 34.6C305.9 34.4 306.5 34 307.1 33.4C307.6 32.7 308.1 31.8 308.3 30.9ZM219.2 49.7C215.7 39.1 212.1 28.5 208.6 17.9C204.8 28.5 200.9 39.1 197.1 49.7C204.5 49.7 211.9 49.7 219.2 49.7Z" />
<path d="M355.1 89.9C355.1 97.8 355.1 105.8 355.1 113.7C345.1 113.7 335.1 113.8 325.1 113.8C323.7 113.8 322.3 113.8 321 113.9C320 114 319 114.2 318.1 114.6C317.8 114.7 317.5 114.9 317.3 115.2C316.9 115.8 316.9 116.6 317.1 117.4C317.5 118.9 318.7 119.8 319.9 120.8C323.1 123.4 325.9 126.2 328.6 129.2C331.2 132.2 333.6 135.5 335.4 139C336.9 142 338 145.3 338.5 148.6C338.9 151.4 338.8 154.2 338.1 156.9C337.4 159.6 336.1 162.1 334.2 164.1C332.7 165.7 330.9 166.9 328.9 167.8C327.5 168.4 326.1 168.9 324.7 169.3C323.5 169.6 322.3 169.8 321.1 170.1C297.4 170.1 273.8 170.1 250.1 170.1C241.7 161.3 233.2 152.4 224.8 143.6C224.8 152.4 224.8 161.2 224.8 170.1C205.5 170.1 186.1 170.1 166.8 170.1C165.1 165.3 163.4 160.4 161.7 155.6C153.8 155.6 145.9 155.6 137.9 155.6C136.2 160.4 134.5 165.3 132.8 170.1C123.2 170.1 113.6 170.1 104.1 170.1C112.9 143.4 121.7 116.7 130.5 90C143.8 90 157 90 170.3 90C178.8 115.5 187.4 141 195.9 166.5C195.9 141 195.9 115.5 195.9 90C213.3 90 230.7 90 248.1 90C251.1 90.4 254.2 90.8 257.1 91.8C260.3 92.8 263.4 94.4 266 96.6C268.2 98.4 270.2 100.6 271.5 103.1C272.8 105.6 273.5 108.4 274 111.2C274.5 114.2 274.6 117.2 274.1 120.1C273.4 123.9 271.5 127.5 268.8 130.3C266.6 132.6 264 134.3 261.2 135.6C258.3 136.9 255.2 137.8 252.1 138.6C254.1 141.1 256.1 143.7 258.1 146.3C270.6 146.3 283 146.3 295.5 146.3C296.6 146.3 297.7 146.3 298.7 146.3C299.8 146.3 300.9 146.3 302.1 145.8C303.1 145.4 304.2 144.8 304.4 143.9C304.6 143.1 304 142.1 303.4 141.3C302.6 140.2 301.6 139.4 300.7 138.6C299.4 137.4 298 136.2 296.7 135C294.5 132.9 292.5 130.7 290.7 128.3C288.5 125.5 286.5 122.5 285 119.2C283.2 115.2 282.4 110.7 282.8 106.3C283.1 103.2 284.1 100 285.9 97.4C287.2 95.4 288.9 93.7 290.9 92.5C292.6 91.5 294.5 90.9 296.4 90.5C298 90.2 299.5 90.2 301.1 90.1C319 89.9 337 89.9 355.1 89.9ZM250.2 119.5C250.3 118.6 250.4 117.6 250.3 116.7C250.2 115.6 250 114.4 249.5 113.3C249.2 112.5 248.7 111.8 248.1 111.3C247.5 110.7 246.8 110.3 246.1 110.1C245.7 110 245.3 109.9 244.9 109.8C238.2 109.8 231.5 109.8 224.7 109.8C224.7 114.7 224.7 119.6 224.7 124.6C231.5 124.6 238.2 124.6 245 124.6C245.6 124.5 246.1 124.5 246.7 124.3C247.3 124.1 247.9 123.8 248.4 123.4C248.8 123.1 249.1 122.7 249.4 122.3C249.8 121.5 250 120.5 250.2 119.5ZM160.9 139.4C157.4 128.9 153.8 118.3 150.3 107.7C146.5 118.3 142.6 128.8 138.8 139.4C146.1 139.4 153.5 139.4 160.9 139.4Z" />
<path d="M167.4 0.200043C167.4 8.10004 167.4 16 167.4 24C158.9 24 150.4 24 141.9 24C141.9 42.8 141.9 61.5 141.9 80.3C133.2 80.3 124.6 80.3 115.9 80.3C115.9 61.5 115.9 42.8 115.9 24C102.2 24 88.5 24 74.8 24C73.7 24 72.6 24 71.6 24C70.5 24 69.4 24.1 68.2 24.6C67.5 24.9 66.8 25.3 66.6 25.8C66.3 26.5 66.7 27.4 67.1 28.2C68.2 30.1 69.7 31.3 71.2 32.6C74.3 35.2 77.3 38.1 79.9 41.3C82.9 45 85.3 49 86.9 53.5C88.3 57.6 89 62.1 88 66.3C87.3 69.5 85.6 72.6 83.2 74.8C80.8 77.1 77.7 78.4 74.5 79.3C73.2 79.6 72 79.9 70.7 80.1C47.4 80.1 24.1 80.1 0.900024 80.1C0.900024 72.2 0.900024 64.3 0.900024 56.3C15.6 56.3 30.3 56.3 45.1 56.3C47.4 56.3 49.4 56.4 51.6 55.8C52.7 55.5 53.9 55 54.1 54.1C54.2 53.5 53.9 52.7 53.6 52.1C53 50.9 52.1 50.2 51.3 49.4C49.4 47.6 47.3 45.9 45.4 44C42.1 40.7 39.1 37.2 36.8 33.1C34.2 28.6 32.5 23.6 32.5 18.4C32.5 13.9 33.8 9.30002 36.7 5.90002C38.8 3.50002 41.7 1.80002 44.7 0.900024C46.7 0.300024 48.8 0.200031 50.9 3.05176e-05C89.6 0.200031 128.5 0.200043 167.4 0.200043Z" />
<path d="M115.9 89.9C109.2 116.6 102.5 143.3 95.7 170C87 170 78.3 170 69.7 170C66.3 158.7 62.9 147.3 59.6 136C56.8 147.3 54 158.7 51.2 170C42.5 170 33.9 170 25.2 170C17.1 143.3 9.00002 116.6 0.900024 89.9C9.50002 89.9 18.2 89.9 26.8 89.9C30.5 101.4 34.2 113 37.8 124.5C41 113 44.2 101.4 47.4 89.9C55.4 89.9 63.4 89.9 71.4 89.9C75.1 101.4 78.8 113 82.6 124.5C85 113 87.5 101.4 89.9 89.9C98.5 89.9 107.2 89.9 115.9 89.9Z" />
</svg>
