<svg width="134" height="212" viewBox="0 0 134 212" fill="currentColor" xmlns="http://www.w3.org/2000/svg">
<path d="M125.5 56.4C133.2 51.9 135.6 60.7999 130.7 62.0999C126.7 63.1999 125.1 65.6 125.7 69.9C126.3 74.1 125.8 78.3 124.5 82.3C123.9 84.3 124.1 86 125.1 87.9C126.3 90.1 127.1 92.7 127.1 95.2C127.1 99.6 128.8 104.1 127.5 108.4C126.1 112.7 123.2 114.1 119 113C115.2 112 111.8 109.9 108.8 107.4C107.8 107 106.8 106.6 106.2 105.7C105.4 104.6 104.8 103.3 103.8 101.3C104.6 110.5 105 118.7 105.9 126.9C106.7 129.7 106.2 132.6 106.3 135.4C108.4 143.6 110.6 151.7 112.7 159.8C113.9 164.5 115.1 169.4 115.1 174.3C114.9 183 119 189.5 124.7 195.5C126.1 197 130.4 199.3 124.6 201.2C123.6 201.6 124.5 202.3 124.9 202.8C125.5 203.9 126.2 205 126 206.3C125.4 207.5 125.1 208.9 123.4 208.8C118.3 207.3 113.8 208.8 109.3 211.1C106.7 210.8 104.6 209.2 102.2 208.1C99.4 206.1 96.3 207.1 93.6 208C91.9 208.6 90.9 209.1 89.5 207.7C88.1 206.3 87.6 204.7 88.7 202.9C90.7 199.6 89.3 199 86.2 199.6C82.8 199.7 79.4 201.2 76 199.6C74.3 199.1 73.7 200.7 72.6 201.2C71.1 202.4 69.5 201.5 68 201.3C67.6 201.2 67.3001 201.1 66.9001 201C60.8001 199.5 45.8 206.9 34 200.5C33.2 200 32 200.2 31.1 200.3C27.7 200.7 24.7 200.1 21.8 197.8C24.6 194.4 29.6 194.8 32.7 191.8C30.2 190.6 27.4 190.1 24.7 190.1C22.6 190.1 22.4 189.2 22.7 187.6C25.3 167.4 27.9 147.4 30.6 127.3C31 124.8 30.4 124.1 28.1 124C25 123.8 22.6 122 20.1 120.5C18.4 120 17.6 118.4 16.7 117.1C14.3 113.9 12.6 110.3 10.6 106.7C9.70001 112.9 9.70004 119 10.2 125C10.7 129.9 11.6 134.7 12.3 139.6C12.4 140.4 12.6001 141.3 12.4001 142.1C10.9001 149.7 7.40005 194.6 8.40005 201.6C5.40005 193.8 5.10004 159.8 6.20004 151.8C6.80004 146.9 6.30001 142 5.10001 137.1C3.50001 129.8 6.30003 122.6 6.50003 115.3C6.60003 113.4 8.00003 109.8 4.00003 113.3C3.40003 113.7 3.30003 113.3 3.00003 113.1C-0.49997 110.5 -0.699994 104.3 2.60001 101.3C5.20001 98.9 8.00003 96.8 11 95C12.3 94.3 13.9 93.5 12.7 91.4C10.6 87.5 13.8 86.5 16.2 86.3C21.8 86.1 25 83.3 26.6 78.2C27.1 76.5 28.3 75.4 30 75.7C33.1 76.1 33.6001 74.3999 34.4001 72.0999C35.4001 69.1999 37 66.5 38.1 63.7C38.8 61.9 39.7 60 39.2 58C38.1 54 39.6 51.2 43.1 49.5C43 49.2 43.1001 48.9 42.9001 48.8C39.6001 47 39.7 40.6999 33.5 42.5999C29.4 43.8999 25.3 40.8999 21.2 40.0999C17.6 39.3999 13.9 39 9.50003 39.2C13 34.9 17.3 33.6 21.7 32.4C24.2 31.8 26.9 31.2 29.3 30C32.9 28.2 35.3 26.1 35.2 21.2C35 12.5 44.9 2.19995 53.7 0.599948C60.8 -0.700052 72.2001 4.69995 75.8001 11.0999C76.7001 12.7999 77.6 12.7 79.1 12.5C83.8 12 88.3001 11 92.4001 8.49997C94.2001 7.39997 96.2001 6.79997 98.3001 6.49997C100.5 6.09997 102.2 6.69995 103.4 9.09995C100 9.19995 98.8001 11.5 97.4001 14C95.2001 18.3 93.4 23.1 89 25.9C88.6 26.2 88 26.6 87.6 26.7C80.3 27.1 81.3001 33 80.3001 37.5999C80.1001 38.5 80.1001 40.3 81.9001 39.2C87.8001 35.4 92.9 38.3 98 40.7C98.8 41.1 99.5001 41.3 100.4 41.7C103.8 42 105.1 44.8 106.6 47.2C109.1 51.3 110.3 51.6999 114.9 50.0999C115.8 49.6999 115.7 48.7 116 48C118.4 41.9 126.7 43.6 124.3 49.3C123.1 50.8 118.1 56.9 119.7 58.4C120.8 60.2 124.4 57.1 125.5 56.4Z" />
</svg>
